<svg width="48" height="48" viewBox="0 0 48 48" fill="none" xmlns="http://www.w3.org/2000/svg">
<path d="M37.9541 14.1737V40C37.9541 42.2052 36.1669 43.9924 33.9616 43.9924H13.9924C11.7872 43.9924 10 42.2052 10 40V8.01827C10 5.81303 11.7872 4.02583 13.9924 4.02583H27.9777L37.9541 14.1737Z" fill="#D0CEFF"/>
<path d="M37.9705 14.1102H31.2186C29.3962 14.1102 27.919 12.633 27.919 10.8106V4L37.9705 14.1102Z" fill="#635DFF"/>
<path d="M29.9856 22H18.0144C16.9033 22 16 22.8943 16 24C16 25.1031 16.9007 26 18.0144 26H29.9856C31.0967 26 32 25.1057 32 24C32 22.8943 31.0993 22 29.9856 22Z" fill="#A5A0FF"/>
<path d="M26.1004 28H17.8996C16.8519 28 16 28.8943 16 30C16 31.1031 16.8494 32 17.8996 32H26.1004C27.1481 32 28 31.1057 28 30C28 28.8943 27.1481 28 26.1004 28Z" fill="#A5A0FF"/>
</svg>
