<svg width="48" height="48" viewBox="0 0 48 48" fill="none" xmlns="http://www.w3.org/2000/svg">
<path d="M8.02891 19.9521H9.95094C12.1763 19.9521 13.9799 21.7557 13.9799 23.9811V39.9711C13.9799 42.1965 12.1763 44 9.95094 44H8.02891C5.80353 44 4 42.1965 4 39.9711V23.9811C4 21.7557 5.80353 19.9521 8.02891 19.9521Z" fill="#635DFF"/>
<path d="M38.0491 11.9251H39.9711C42.1965 11.9251 44 13.7286 44 15.954V39.9711C44 42.1965 42.1965 44 39.9711 44H38.0491C35.8237 44 34.0201 42.1965 34.0201 39.9711V15.954C34.0201 13.7286 35.8237 11.9251 38.0491 11.9251Z" fill="#D0CEFF"/>
<path d="M21.9992 4H26.0008C28.2098 4 30 5.79725 30 8.01488V39.9851C30 42.2028 28.2098 44 26.0008 44H21.9992C19.7902 44 18 42.2028 18 39.9851V8.01488C18 5.79725 19.7902 4 21.9992 4Z" fill="#A5A0FF"/>
</svg>
