<svg width="48" height="48" viewBox="0 0 48 48" fill="none" xmlns="http://www.w3.org/2000/svg">
<path d="M38.3781 26.1042H29.4576C27.5218 26.1042 25.9534 27.6725 25.9534 29.6083V38.3522C25.9534 40.288 27.5218 41.8564 29.4576 41.8564H38.3781C40.3139 41.8564 41.8823 40.288 41.8823 38.3522V29.6083C41.8823 27.6725 40.3139 26.1042 38.3781 26.1042Z" fill="#D0CEFF"/>
<path d="M18.4247 26.1042H9.50415C7.56839 26.1042 6 27.6725 6 29.6083V38.3522C6 40.288 7.56839 41.8564 9.50415 41.8564H18.4247C20.3604 41.8564 21.9288 40.288 21.9288 38.3522V29.6083C21.9288 27.6725 20.3604 26.1042 18.4247 26.1042Z" fill="#A5A0FF"/>
<path d="M18.4247 6.15073H9.50415C7.56839 6.15073 6 7.71912 6 9.65488V18.3988C6 20.3345 7.56839 21.9029 9.50415 21.9029H18.4247C20.3604 21.9029 21.9288 20.3345 21.9288 18.3988V9.65488C21.9288 7.71912 20.3604 6.15073 18.4247 6.15073Z" fill="#D0CEFF"/>
<path d="M27.9598 12.0357H40.0289C41.1192 12.0357 42 12.9188 42 14.0068C42 15.0971 41.1169 15.9779 40.0289 15.9779H27.9598C26.8695 15.9779 25.9887 15.0948 25.9887 14.0068C25.9887 12.9188 26.8695 12.0357 27.9598 12.0357Z" fill="#635DFF"/>
<path d="M32.0221 20.0425V7.97109C32.0221 6.88075 32.9052 6 33.9932 6C35.0835 6 35.9643 6.8831 35.9643 7.97109V20.0402C35.9643 21.1305 35.0812 22.0113 33.9932 22.0113C32.9052 22.0136 32.0221 21.1305 32.0221 20.0425Z" fill="#635DFF"/>
</svg>
