<svg width="48" height="48" viewBox="0 0 48 48" fill="none" xmlns="http://www.w3.org/2000/svg">
<path d="M4.09068 17.8291C4.09068 16.699 5.28275 15.9662 6.29113 16.4765L20.9143 23.876C22.0912 24.4715 22.8332 25.6784 22.8332 26.9975V43.2978C22.8332 44.4296 21.6379 45.1623 20.6293 44.6488L6.00171 37.2007C4.82908 36.6037 4.09068 35.3991 4.09068 34.0832V17.8291Z" fill="#635DFF"/>
<path d="M43.9093 17.8291C43.9093 16.699 42.7172 15.9662 41.7089 16.4765L27.0857 23.876C25.9088 24.4715 25.1668 25.6784 25.1668 26.9975V43.2978C25.1668 44.4296 26.3621 45.1623 27.3707 44.6488L41.9983 37.2007C43.1709 36.6037 43.9093 35.3991 43.9093 34.0832V17.8291Z" fill="#A5A0FF"/>
<path d="M22.1822 3.61153C23.368 3.04168 24.6801 3.04168 25.8659 3.61153L42.0325 11.3807C42.9068 11.8008 42.9148 13.3472 42.0449 13.7816L25.5475 22.0205C24.5693 22.5091 23.4788 22.5091 22.5006 22.0205L6.00312 13.7816C5.13325 13.3472 5.14129 11.8008 6.01561 11.3807L22.1822 3.61153Z" fill="#D0CEFF"/>
</svg>
