<svg width="48" height="49" viewBox="0 0 48 49" fill="none" xmlns="http://www.w3.org/2000/svg">
<g clip-path="url(#clip0_827_218)">
<path d="M29.6321 36.4226C30.5651 35.4933 31.8274 34.9704 33.1443 34.9675H37.0578C38.3666 34.9741 39.6198 35.4969 40.5452 36.4223C41.4706 37.3477 41.9934 38.601 42 39.9097V42.6442C42 42.9044 41.9487 43.1622 41.8491 43.4026C41.7495 43.6431 41.6036 43.8615 41.4195 44.0456C41.2355 44.2296 41.017 44.3756 40.7766 44.4752C40.5361 44.5748 40.2784 44.6261 40.0181 44.6261H30.184C29.6583 44.6261 29.1543 44.4173 28.7826 44.0456C28.4109 43.6739 28.2021 43.1698 28.2021 42.6442V39.9097C28.1994 39.263 28.3243 38.6221 28.5697 38.0237C28.8151 37.4253 29.1761 36.8812 29.6321 36.4226Z" fill="#D0CEFF"/>
<path d="M29.8829 26.8644C29.8829 25.8323 30.1889 24.8234 30.7623 23.9653C31.3357 23.1072 32.1507 22.4384 33.1042 22.0435C34.0576 21.6485 35.1068 21.5452 36.119 21.7465C37.1313 21.9478 38.061 22.4448 38.7908 23.1746C39.5206 23.9044 40.0175 24.8341 40.2189 25.8464C40.4202 26.8586 40.3169 27.9078 39.922 28.8612C39.527 29.8147 38.8582 30.6297 38.0001 31.2031C37.1419 31.7764 36.1331 32.0825 35.101 32.0825C33.7171 32.0825 32.3899 31.5327 31.4113 30.5541C30.4327 29.5755 29.8829 28.2483 29.8829 26.8644Z" fill="#D0CEFF"/>
<path d="M7.45505 36.4226C7.91544 35.9602 8.46284 35.5936 9.06565 35.3438C9.66846 35.0941 10.3148 34.9662 10.9672 34.9675H14.8557C16.1688 34.9675 17.4285 35.4874 18.3593 36.4135C19.2901 37.3397 19.8164 38.5967 19.823 39.9097V42.6442C19.823 42.9066 19.7709 43.1664 19.6698 43.4085C19.5686 43.6506 19.4204 43.8702 19.2337 44.0545C19.047 44.2389 18.8255 44.3844 18.5822 44.4825C18.3388 44.5806 18.0784 44.6294 17.816 44.6261H7.98187C7.45624 44.6261 6.95217 44.4173 6.58049 44.0456C6.20882 43.6739 6 43.1698 6 42.6442V39.9097C6.00399 38.6005 6.5273 37.3463 7.45505 36.4226Z" fill="#635DFF"/>
<path d="M7.70592 26.8643C7.70593 25.8312 8.01263 24.8213 8.58712 23.9627C9.16161 23.104 9.97806 22.4352 10.933 22.041C11.888 21.6468 12.9384 21.545 13.9513 21.7484C14.9642 21.9517 15.8939 22.4512 16.6227 23.1835C17.3514 23.9158 17.8464 24.8479 18.0449 25.8618C18.2434 26.8756 18.1365 27.9256 17.7377 28.8786C17.3389 29.8317 16.6662 30.6449 15.8048 31.2152C14.9434 31.7856 13.9321 32.0874 12.899 32.0824C11.5194 32.0758 10.1986 31.5231 9.22538 30.5452C8.25222 29.5674 7.7059 28.2439 7.70592 26.8643Z" fill="#635DFF"/>
<path d="M35.3519 18.4601C35.0059 18.4601 34.6741 18.3227 34.4295 18.078C34.1848 17.8334 34.0474 17.5016 34.0474 17.1556V9.75488C34.0474 9.02964 33.7593 8.33411 33.2465 7.82129C32.7336 7.30847 32.0381 7.02038 31.3129 7.02038H17.1387C16.7774 7.01706 16.4192 7.08535 16.0845 7.22128C15.7498 7.35722 15.4454 7.55812 15.1889 7.81237C14.9323 8.06662 14.7286 8.36919 14.5896 8.7026C14.4506 9.03601 14.3791 9.39366 14.3791 9.75488V16.1521C14.3791 16.4981 14.2417 16.8299 13.997 17.0745C13.7524 17.3192 13.4205 17.4566 13.0746 17.4566C12.7286 17.4566 12.3967 17.3192 12.1521 17.0745C11.9075 16.8299 11.77 16.4981 11.77 16.1521V9.75488C11.77 9.04986 11.9089 8.35174 12.1787 7.70039C12.4485 7.04903 12.8439 6.45719 13.3425 5.95867C13.841 5.46014 14.4328 5.0647 15.0842 4.7949C15.7355 4.5251 16.4336 4.38623 17.1387 4.38623H31.3129C32.0167 4.38622 32.7136 4.52527 33.3636 4.79537C34.0135 5.06548 34.6037 5.46133 35.1002 5.96018C35.5968 6.45904 35.9899 7.05107 36.2569 7.70228C36.524 8.35349 36.6597 9.05104 36.6564 9.75488V17.1556C36.6564 17.5016 36.519 17.8334 36.2743 18.078C36.0297 18.3227 35.6979 18.4601 35.3519 18.4601Z" fill="#635DFF"/>
<path d="M35.076 19.012C34.9039 19.0149 34.733 18.9831 34.5735 18.9184C34.414 18.8538 34.2692 18.7576 34.1478 18.6357L29.5317 14.0197C29.2896 13.7713 29.1541 13.4383 29.1541 13.0914C29.1541 12.7446 29.2896 12.4115 29.5317 12.1632C29.6552 12.0396 29.8019 11.9415 29.9633 11.8746C30.1247 11.8076 30.2977 11.7732 30.4725 11.7732C30.6472 11.7732 30.8203 11.8076 30.9817 11.8746C31.1431 11.9415 31.2898 12.0396 31.4133 12.1632L35.076 15.851L38.7638 12.1632C39.01 11.917 39.3439 11.7787 39.692 11.7787C40.0402 11.7787 40.3741 11.917 40.6202 12.1632C40.8664 12.4094 41.0047 12.7433 41.0047 13.0914C41.0047 13.4396 40.8664 13.7735 40.6202 14.0197L36.0042 18.6357C35.8828 18.7576 35.7379 18.8538 35.5784 18.9184C35.419 18.9831 35.248 19.0149 35.076 19.012Z" fill="#635DFF"/>
</g>
<defs>
<clipPath id="clip0_827_218">
<rect width="36" height="40.2397" fill="white" transform="translate(6 4.38623)"/>
</clipPath>
</defs>
</svg>
