<svg width="48" height="48" viewBox="0 0 48 48" fill="none" xmlns="http://www.w3.org/2000/svg">
<path d="M6.00324 8H41.9373C44.1485 8 45.9405 9.79204 45.9405 12.0032V35.9968C45.9405 38.208 44.1485 40 41.9373 40H6.00324C3.79204 40 2 38.208 2 35.9968V12.0032C2 9.79204 3.79204 8 6.00324 8Z" fill="#D0CEFF"/>
<path fill-rule="evenodd" clip-rule="evenodd" d="M38.5385 15.5332C39.172 16.1972 39.1484 17.2498 38.4843 17.8856L26.6701 29.1606C26.0272 29.7753 25.0146 29.7753 24.3717 29.1606L19.2876 24.3073L11.851 31.2094C11.1775 31.8334 10.1249 31.7957 9.50089 31.1222C8.87686 30.4487 8.91454 29.3961 9.58802 28.7721L18.1738 20.8057C18.819 20.2075 19.8175 20.2146 20.4533 20.8221L25.5209 25.6613L36.186 15.4813C36.8501 14.8432 37.9027 14.8691 38.5385 15.5332Z" fill="#635DFF"/>
<path fill-rule="evenodd" clip-rule="evenodd" d="M29.145 16.0465C29.4017 15.4248 30.0092 15.0198 30.6827 15.0198H37.3375C38.2559 15.0198 39 15.7639 39 16.6823V23.3371C39 24.0106 38.595 24.6158 37.9733 24.8748C37.3516 25.1315 36.6358 24.9902 36.1601 24.5145L29.5053 17.8597C29.0296 17.3817 28.8883 16.6658 29.145 16.0465Z" fill="#635DFF"/>
</svg>
