<svg width="48" height="48" viewBox="0 0 48 48" fill="none" xmlns="http://www.w3.org/2000/svg">
<path d="M24.1688 28.5322C24.8135 29.2169 25.4134 29.9533 25.964 30.7345C40.8998 15.954 44.1137 7.17086 43.9184 5.32859C43.8855 5.0039 43.7373 4.70744 43.5091 4.47686C43.5044 4.47216 43.3914 4.36157 43.3914 4.36157L43.3844 4.35452C43.0761 4.05335 42.5326 3.9663 42.1068 4.011C40.0739 4.22276 32.0037 8.58491 19.3055 24.7983C22.39 26.4735 24.1688 28.5322 24.1688 28.5322Z" fill="#635DFF"/>
<path d="M21.0724 29.4616C21.0724 29.4616 18.1808 26.4194 14.1645 27.7346C10.1506 29.0498 9.05417 35.9907 7.70129 38.5129C6.34606 41.0328 4.73672 41.614 4.1391 42.1104C3.48972 42.6539 5.14376 43.8468 8.47773 43.9833C12.6587 44.155 19.209 43.0257 22.1547 39.6635C24.5358 36.9459 23.8205 32.1062 21.0724 29.4616Z" fill="#D0CEFF"/>
</svg>
