<svg width="48" height="48" viewBox="0 0 48 48" fill="none" xmlns="http://www.w3.org/2000/svg">
<rect x="4" y="8" width="40" height="32" rx="4" fill="#D0CEFF"/>
<path d="M4 12C4 9.79086 5.79086 8 8 8H19V40H8C5.79086 40 4 38.2091 4 36V12Z" fill="#A5A0FF"/>
<path d="M4 12C4 9.79086 5.79086 8 8 8H40C42.2091 8 44 9.79086 44 12V16H4V12Z" fill="#635DFF"/>
<path d="M38.6109 13.5666C39.3594 13.5666 39.9661 12.9599 39.9661 12.2114C39.9661 11.463 39.3594 10.8563 38.6109 10.8563C37.8625 10.8563 37.2558 11.463 37.2558 12.2114C37.2558 12.9599 37.8625 13.5666 38.6109 13.5666Z" fill="#D0CEFF"/>
<path d="M12.0874 22.9728H7.9864C7.44023 22.9728 7 22.5302 7 21.9864C7 21.4402 7.44259 21 7.9864 21H12.0874C12.6336 21 13.0738 21.4426 13.0738 21.9864C13.0738 22.5302 12.6312 22.9728 12.0874 22.9728Z" fill="#635DFF"/>
<path d="M12.0874 30.9888H7.9864C7.44023 30.9888 7 30.5462 7 30.0024C7 29.4562 7.44259 29.016 7.9864 29.016H12.0874C12.6336 29.016 13.0738 29.4586 13.0738 30.0024C13.0738 30.5462 12.6312 30.9888 12.0874 30.9888Z" fill="#635DFF"/>
<path d="M14.0814 26.9796H7.9864C7.44023 26.9796 7 26.537 7 25.9932C7 25.447 7.44259 25.0068 7.9864 25.0068H14.0814C14.6276 25.0068 15.0678 25.4494 15.0678 25.9932C15.0678 26.5394 14.6252 26.9796 14.0814 26.9796Z" fill="#635DFF"/>
</svg>
