<svg width="48" height="48" viewBox="0 0 48 48" fill="none" xmlns="http://www.w3.org/2000/svg">
<path d="M20.4246 5.30105L6.47826 15.8273C4.36925 17.4184 3.48892 20.2265 4.29628 22.7875L9.62059 39.6878C10.4303 42.2605 12.7559 44 15.3804 44H32.6196C35.2441 44 37.5697 42.2582 38.3794 39.6878L43.7037 22.7875C44.5111 20.2265 43.6308 17.4184 41.5217 15.8273L27.5849 5.30105C25.4523 3.69104 22.5548 3.69104 20.4246 5.30105Z" fill="#635DFF"/>
<path d="M19.516 36.1571C17.9013 36.1571 16.2842 35.5475 15.0461 34.3258L14.9849 34.2646C13.7939 33.0336 13.1607 31.4236 13.189 29.7218C13.2196 28.0224 13.9092 26.4359 15.1308 25.2543C17.3058 23.1523 20.5634 22.8958 23.0067 24.4822L26.0384 21.4505L30.4753 17.0136C30.4777 17.0112 30.48 17.0089 30.4847 17.0042L31.1509 16.338C31.6405 15.8485 32.4337 15.8485 32.9256 16.338C33.4152 16.8276 33.4152 17.6232 32.9256 18.1128L31.744 19.2944L33.6459 21.1963C34.1355 21.6859 34.1355 22.4815 33.6459 22.9711L30.8119 25.8004C30.3223 26.2899 29.5291 26.2899 29.0371 25.8004L27.1353 23.8985L24.7956 26.2382C26.4527 28.6979 26.2079 32.0733 24.0447 34.2646C22.8043 35.5239 21.1613 36.1571 19.516 36.1571ZM19.5513 26.8313C18.8028 26.8313 18.0543 27.1138 17.4729 27.6763C16.2866 28.8226 16.2536 30.7198 17.3999 31.9061L17.4211 31.9273C18.5957 33.0854 20.4952 33.0736 21.6532 31.8991C22.2158 31.3294 22.5218 30.5762 22.5147 29.7783C22.51 28.9921 22.204 28.253 21.6509 27.6952C21.6438 27.6881 21.6368 27.6834 21.6297 27.6763C21.046 27.1114 20.2975 26.8313 19.5513 26.8313Z" fill="#D0CEFF"/>
</svg>
