<svg width="48" height="48" viewBox="0 0 48 48" fill="none" xmlns="http://www.w3.org/2000/svg">
<rect x="3.91339" y="6" width="40.0866" height="24" rx="2" fill="#D0CEFF"/>
<path d="M12.9879 14.9858C12.9879 13.3209 14.3372 11.9716 16.0021 11.9716C17.6669 11.9716 19.0163 13.3209 19.0163 14.9858C19.0163 16.6506 17.6669 18 16.0021 18C14.3372 18 12.9879 16.6483 12.9879 14.9858Z" fill="#635DFF"/>
<path d="M10.8426 20.0911C11.4078 19.5259 12.1731 19.208 12.9714 19.208H19.0163C19.8146 19.208 20.5799 19.5259 21.1451 20.0911C21.7102 20.6562 22.0281 21.4216 22.0281 22.2199V22.8251C22.0281 23.4891 21.4889 24.0284 20.8248 24.0284H11.1723C10.5035 24.0284 9.96191 23.4868 9.96191 22.818V22.2222C9.96191 21.4216 10.2798 20.6562 10.8426 20.0911Z" fill="#635DFF"/>
<path d="M26.6743 20.6167C26.6743 19.7042 27.4137 18.9626 28.3283 18.9626H34.0114C34.9239 18.9626 35.6654 19.7021 35.6654 20.6167C35.6654 21.5292 34.9259 22.2707 34.0114 22.2707H28.3283C27.4158 22.2687 26.6743 21.5292 26.6743 20.6167Z" fill="#A5A0FF"/>
<path d="M26.6743 15.3291C26.6743 14.4166 27.4137 13.675 28.3283 13.675H35.5439C36.4564 13.675 37.1979 14.4145 37.1979 15.3291C37.1979 16.2416 36.4584 16.9831 35.5439 16.9831H28.3283C27.4158 16.9831 26.6743 16.2416 26.6743 15.3291Z" fill="#A5A0FF"/>
<path d="M22.5503 26.873L15.075 39.3523C14.9209 39.6192 14.8394 39.9218 14.8385 40.23C14.8376 40.5382 14.9175 40.8413 15.0701 41.109C15.2227 41.3768 15.4428 41.5999 15.7085 41.7562C15.9741 41.9125 16.276 41.9966 16.5842 41.9999H31.5346C31.8428 41.9966 32.1448 41.9125 32.4104 41.7562C32.676 41.5999 32.8961 41.3768 33.0487 41.109C33.2014 40.8413 33.2812 40.5382 33.2803 40.23C33.2795 39.9218 33.1979 39.6192 33.0438 39.3523L25.5686 26.873C25.4113 26.6136 25.1897 26.3992 24.9254 26.2503C24.661 26.1015 24.3628 26.0233 24.0594 26.0233C23.7561 26.0233 23.4578 26.1015 23.1935 26.2503C22.9291 26.3992 22.7076 26.6136 22.5503 26.873Z" fill="#635DFF"/>
<path fill-rule="evenodd" clip-rule="evenodd" d="M24.0594 30.4108C24.6109 30.4108 25.0579 30.8578 25.0579 31.4093V34.9395C25.0579 35.491 24.6109 35.9381 24.0594 35.9381C23.5079 35.9381 23.0609 35.491 23.0609 34.9395V31.4093C23.0609 30.8578 23.5079 30.4108 24.0594 30.4108Z" fill="white"/>
<path fill-rule="evenodd" clip-rule="evenodd" d="M23.0609 38.4697C23.0609 37.9183 23.5079 37.4712 24.0594 37.4712H24.0694C24.6209 37.4712 25.0679 37.9183 25.0679 38.4697C25.0679 39.0212 24.6209 39.4683 24.0694 39.4683H24.0594C23.5079 39.4683 23.0609 39.0212 23.0609 38.4697Z" fill="white"/>
</svg>
