<svg width="48" height="48" viewBox="0 0 48 48" fill="none" xmlns="http://www.w3.org/2000/svg">
<path d="M9 13.1803C9 9.21396 12.2165 6 16.1803 6C20.1467 6 23.3607 9.21396 23.3607 13.1803C23.3607 17.1467 20.1467 20.3607 16.1803 20.3607C12.2165 20.3581 9 17.1441 9 13.1803Z" fill="#635DFF"/>
<path d="M6.28313 25.5449C7.74661 24.0814 9.7298 23.2618 11.7983 23.2618H20C22.0685 23.2618 24.0517 24.084 25.5152 25.5449C26.9787 27.0084 27.7983 28.9916 27.7983 31.0601V38.874C27.7983 40.6012 26.3995 42 24.6723 42H7.12605C5.39884 42 4 40.5986 4 38.874L4 31.0601C4 28.9916 4.82224 27.0084 6.28313 25.5449Z" fill="#D0CEFF"/>
<path d="M31.5074 27.4699C32.4719 26.5055 33.7776 25.9651 35.1403 25.9651H38.8623C40.225 25.9651 41.5333 26.5055 42.4952 27.4699C43.4596 28.4344 44 29.7401 44 31.1028V35.9392C44 37.0769 43.0769 38 41.9392 38H32.0608C30.9231 38 30 37.0769 30 35.9392V31.1028C30.0026 29.7401 30.5456 28.4344 31.5074 27.4699Z" fill="#D0CEFF"/>
<path d="M32 19C32 16.2395 34.2395 14 37 14C39.7605 14 42 16.2395 42 19C42 21.7605 39.7605 24 37 24C34.2371 24 32 21.7629 32 19Z" fill="#A5A0FF"/>
</svg>
