<svg width="48" height="48" viewBox="0 0 48 48" fill="none" xmlns="http://www.w3.org/2000/svg">
<rect x="2" y="6.10278" width="44" height="23.8972" rx="3.5" fill="#D0CEFF"/>
<circle cx="9.69778" cy="18.0514" r="1.69778" fill="#635DFF"/>
<circle cx="15.8515" cy="18.0514" r="1.69778" fill="#635DFF"/>
<circle cx="22.0051" cy="18.0514" r="1.69778" fill="#635DFF"/>
<circle cx="28.1588" cy="18.0514" r="1.69778" fill="#635DFF"/>
<circle cx="34.3125" cy="18.0514" r="1.69778" fill="#635DFF"/>
<rect x="38.7684" y="12.2777" width="1.23155" height="11.5473" rx="0.615775" fill="#635DFF"/>
<path d="M23.9999 42C28.4182 42 31.9999 38.4183 31.9999 34C31.9999 29.5817 28.4182 26 23.9999 26C19.5817 26 15.9999 29.5817 15.9999 34C15.9999 38.4183 19.5817 42 23.9999 42Z" fill="#635DFF"/>
<path fill-rule="evenodd" clip-rule="evenodd" d="M24 28.6C24.5523 28.6 25 29.0477 25 29.6V33.7819L27.6472 35.1055C28.1412 35.3525 28.3414 35.9532 28.0944 36.4472C27.8474 36.9412 27.2468 37.1414 26.7528 36.8944L23.5528 35.2944C23.214 35.125 23 34.7787 23 34.4V29.6C23 29.0477 23.4477 28.6 24 28.6Z" fill="white"/>
</svg>
