<svg width="48" height="48" viewBox="0 0 48 48" fill="none" xmlns="http://www.w3.org/2000/svg">
<path fill-rule="evenodd" clip-rule="evenodd" d="M39.2763 8.85311L25.285 4.19324C24.8939 4.06132 24.484 3.99771 24.0764 4.00006C23.6689 3.99771 23.2589 4.06132 22.8655 4.19324L8.87649 8.85311C7.15908 9.42558 6 11.0323 6 12.8439V27.6104L6.01885 27.6646C6.29448 31.6271 16.5872 41.3567 24.0034 44H24.1495C31.5657 41.3567 41.8607 31.6271 42.134 27.6646L42.1505 27.6104V12.8439C42.1505 11.0323 40.9938 9.42558 39.2763 8.85311Z" fill="#D0CEFF"/>
<path fill-rule="evenodd" clip-rule="evenodd" d="M33.5611 20.4227L22.1069 31.8768L19.082 28.8519L30.5362 17.3978C31.3725 16.5614 32.7271 16.5614 33.5611 17.3978C34.3974 18.2341 34.3974 19.5887 33.5611 20.4227Z" fill="#635DFF"/>
<path fill-rule="evenodd" clip-rule="evenodd" d="M15.414 25.1674L22.1163 31.8698L25.0776 28.9085L18.3753 22.2061C17.5578 21.3886 16.2314 21.3886 15.414 22.2061C14.5965 23.0235 14.5965 24.3499 15.414 25.1674Z" fill="#635DFF"/>
</svg>
