<svg width="48" height="48" viewBox="0 0 48 48" fill="none" xmlns="http://www.w3.org/2000/svg">
<path d="M4 31.1041V10.5803C4 8.68995 5.50866 7.15796 7.3702 7.15796H34.314C36.1755 7.15796 37.6842 8.68995 37.6842 10.5803V31.1041C37.6842 32.9944 36.1755 34.5264 34.314 34.5264H7.3702C5.50866 34.5264 4 32.9944 4 31.1041Z" fill="#D0CEFF"/>
<path d="M8.18425 11.3919C8.65302 11.3919 9.03302 11.0119 9.03302 10.5431C9.03302 10.0743 8.65302 9.69434 8.18425 9.69434C7.71549 9.69434 7.33548 10.0743 7.33548 10.5431C7.33548 11.0119 7.71549 11.3919 8.18425 11.3919Z" fill="#635DFF"/>
<path d="M10.9172 11.391C11.386 11.391 11.766 11.011 11.766 10.5423C11.766 10.0735 11.386 9.69348 10.9172 9.69348C10.4484 9.69348 10.0684 10.0735 10.0684 10.5423C10.0684 11.011 10.4484 11.391 10.9172 11.391Z" fill="#635DFF"/>
<path d="M13.647 11.391C14.1157 11.391 14.4957 11.011 14.4957 10.5423C14.4957 10.0735 14.1157 9.69348 13.647 9.69348C13.1782 9.69348 12.7982 10.0735 12.7982 10.5423C12.7982 11.011 13.1782 11.391 13.647 11.391Z" fill="#635DFF"/>
<path d="M25.0526 34.5264C25.0526 34.5264 28.4976 28.2106 34.5263 28.2106C40.555 28.2106 44 34.5264 44 34.5264C44 34.5264 40.555 40.8421 34.5263 40.8421C28.4976 40.8421 25.0526 34.5264 25.0526 34.5264Z" fill="#635DFF"/>
<path d="M34.5263 36.8948C35.8684 36.8948 36.9563 35.8344 36.9563 34.5264C36.9563 33.2183 35.8684 32.158 34.5263 32.158C33.1843 32.158 32.0963 33.2183 32.0963 34.5264C32.0963 35.8344 33.1843 36.8948 34.5263 36.8948Z" fill="white"/>
<path fill-rule="evenodd" clip-rule="evenodd" d="M20.8706 21.0354C19.2181 21.0354 17.6179 21.6145 16.3482 22.6721C15.9968 22.9648 15.4746 22.9172 15.1819 22.5658C14.8892 22.2144 14.9368 21.6922 15.2882 21.3995C16.8555 20.094 18.8308 19.3792 20.8706 19.3792C22.9104 19.3792 24.8857 20.094 26.453 21.3995C26.8044 21.6922 26.852 22.2144 26.5593 22.5658C26.2666 22.9172 25.7445 22.9648 25.3931 22.6721C24.1233 21.6145 22.5231 21.0354 20.8706 21.0354Z" fill="#635DFF"/>
<path fill-rule="evenodd" clip-rule="evenodd" d="M20.842 17.4474C18.2478 17.4474 15.7427 18.3938 13.7966 20.1093C13.4535 20.4117 12.9303 20.3787 12.6278 20.0356C12.3254 19.6925 12.3584 19.1692 12.7015 18.8668C14.9501 16.8847 17.8446 15.7911 20.842 15.7911C23.8395 15.7911 26.734 16.8847 28.9826 18.8668C29.3257 19.1692 29.3586 19.6925 29.0562 20.0356C28.7538 20.3787 28.2305 20.4117 27.8874 20.1093C25.9413 18.3938 23.4362 17.4474 20.842 17.4474Z" fill="#635DFF"/>
<path fill-rule="evenodd" clip-rule="evenodd" d="M20.8454 24.6231C20.1236 24.6231 19.4196 24.8477 18.8311 25.2658C18.4583 25.5307 17.9413 25.4432 17.6764 25.0704C17.4116 24.6975 17.4991 24.1805 17.8719 23.9157C18.7406 23.2985 19.7798 22.9669 20.8454 22.9669C21.911 22.9669 22.9503 23.2985 23.819 23.9157C24.1918 24.1805 24.2793 24.6975 24.0144 25.0704C23.7495 25.4432 23.2326 25.5307 22.8597 25.2658C22.2713 24.8477 21.5673 24.6231 20.8454 24.6231Z" fill="#635DFF"/>
<path fill-rule="evenodd" clip-rule="evenodd" d="M20.0136 27.3824C20.0136 26.9251 20.3843 26.5543 20.8417 26.5543H20.8484C21.3057 26.5543 21.6765 26.9251 21.6765 27.3824C21.6765 27.8398 21.3057 28.2105 20.8484 28.2105H20.8417C20.3843 28.2105 20.0136 27.8398 20.0136 27.3824Z" fill="#635DFF"/>
</svg>
