<svg width="48" height="48" viewBox="0 0 48 48" fill="none" xmlns="http://www.w3.org/2000/svg">
<rect x="2.00002" y="6.10278" width="44" height="23.8972" rx="3.5" fill="#D0CEFF"/>
<circle cx="9.69778" cy="18.0514" r="1.69778" fill="#635DFF"/>
<circle cx="15.8515" cy="18.0514" r="1.69778" fill="#635DFF"/>
<circle cx="22.0051" cy="18.0514" r="1.69778" fill="#635DFF"/>
<circle cx="28.1588" cy="18.0514" r="1.69778" fill="#635DFF"/>
<circle cx="34.3125" cy="18.0514" r="1.69778" fill="#635DFF"/>
<path d="M22.4887 26.8509L15.0025 39.3485C14.8482 39.6158 14.7665 39.9188 14.7656 40.2275C14.7648 40.5361 14.8447 40.8396 14.9976 41.1078C15.1504 41.3759 15.3708 41.5994 15.6369 41.7559C15.9029 41.9125 16.2052 41.9966 16.5139 42H31.4862C31.7948 41.9966 32.0972 41.9125 32.3632 41.7559C32.6293 41.5994 32.8497 41.3759 33.0025 41.1078C33.1553 40.8396 33.2353 40.5361 33.2345 40.2275C33.2336 39.9188 33.1519 39.6158 32.9976 39.3485L25.5114 26.8509C25.3539 26.5912 25.132 26.3764 24.8673 26.2273C24.6025 26.0783 24.3039 26 24 26C23.6962 26 23.3976 26.0783 23.1328 26.2273C22.8681 26.3764 22.6462 26.5912 22.4887 26.8509Z" fill="#635DFF"/>
<path fill-rule="evenodd" clip-rule="evenodd" d="M24 30.3939C24.5523 30.3939 25 30.8416 25 31.3939V34.9293C25 35.4816 24.5523 35.9293 24 35.9293C23.4477 35.9293 23 35.4816 23 34.9293V31.3939C23 30.8416 23.4477 30.3939 24 30.3939Z" fill="white"/>
<path fill-rule="evenodd" clip-rule="evenodd" d="M23 38.4646C23 37.9123 23.4477 37.4646 24 37.4646H24.01C24.5623 37.4646 25.01 37.9123 25.01 38.4646C25.01 39.0169 24.5623 39.4646 24.01 39.4646H24C23.4477 39.4646 23 39.0169 23 38.4646Z" fill="white"/>
<rect x="38.7684" y="12.2778" width="1.23155" height="11.5473" rx="0.615775" fill="#635DFF"/>
</svg>
