<svg width="49" height="48" viewBox="0 0 49 48" fill="none" xmlns="http://www.w3.org/2000/svg">
<path d="M33.9668 2.04639H15.335C12.7477 2.04639 10.6509 4.01465 10.6509 6.44331V41.5566C10.6509 43.9852 12.7477 45.9535 15.335 45.9535H33.9668C36.554 45.9535 38.6509 43.9852 38.6509 41.5566V6.44331C38.6509 4.01465 36.554 2.04639 33.9668 2.04639Z" fill="#D0CEFF"/>
<path d="M24.6509 41.9448C23.548 41.9448 22.6552 41.0521 22.6552 39.9492C22.6552 38.8462 23.548 37.9535 24.6509 37.9535C25.7538 37.9535 26.6466 38.8462 26.6466 39.9492C26.6466 41.0497 25.7538 41.9448 24.6509 41.9448Z" fill="#635DFF"/>
<rect x="13.4981" y="16" width="22.3055" height="12" rx="2" fill="white"/>
<mask id="path-4-outside-1_918_179" maskUnits="userSpaceOnUse" x="15.2211" y="17.136" width="18" height="9" fill="black">
<rect fill="white" x="15.2211" y="17.136" width="18" height="9"/>
<path d="M21.0307 22.8282V21.089C21.0307 20.6164 20.9763 20.1982 20.8675 19.8344C20.7587 19.4672 20.6023 19.1577 20.3983 18.9061C20.1908 18.6545 19.9375 18.4641 19.6383 18.3349C19.3425 18.2023 19.0042 18.136 18.6234 18.136C18.2459 18.136 17.9076 18.2023 17.6084 18.3349C17.3126 18.4641 17.0627 18.6545 16.8587 18.9061C16.6513 19.1577 16.4931 19.4672 16.3843 19.8344C16.2755 20.1982 16.2211 20.6164 16.2211 21.089V22.8282C16.2211 23.3009 16.2755 23.7208 16.3843 24.088C16.4931 24.4518 16.6513 24.7579 16.8587 25.0061C17.0661 25.2611 17.3194 25.4532 17.6186 25.5824C17.9178 25.7082 18.2561 25.7711 18.6336 25.7711C19.0144 25.7711 19.3527 25.7065 19.6485 25.5773C19.9443 25.4481 20.1942 25.2577 20.3983 25.0061C20.6023 24.7579 20.7587 24.4518 20.8675 24.088C20.9763 23.7208 21.0307 23.3009 21.0307 22.8282ZM17.1698 22.6395C17.1698 22.5511 17.1698 22.4644 17.1698 22.3794C17.1698 22.2944 17.1698 22.2094 17.1698 22.1244V20.8799C17.1698 20.5331 17.2038 20.2288 17.2718 19.967C17.3432 19.7018 17.4503 19.4859 17.5931 19.3193C17.7121 19.1866 17.8566 19.0863 18.0266 19.0183C18.2 18.9469 18.3989 18.9112 18.6234 18.9112C18.8444 18.9112 19.0382 18.9435 19.2048 19.0081C19.3748 19.0727 19.5176 19.1696 19.6332 19.2989C19.7522 19.4247 19.8457 19.5828 19.9137 19.7732C19.9851 19.9602 20.0344 20.1761 20.0616 20.4209L17.1698 22.6395ZM20.082 23.0272C20.082 23.391 20.0446 23.7072 19.9698 23.9758C19.8984 24.2444 19.7845 24.462 19.6281 24.6286C19.5125 24.751 19.3714 24.8446 19.2048 24.9092C19.0382 24.9738 18.8478 25.0061 18.6336 25.0061C18.4296 25.0061 18.2459 24.9772 18.0827 24.9194C17.9195 24.8582 17.7801 24.7698 17.6645 24.6541C17.5387 24.5317 17.4367 24.377 17.3585 24.19C17.2803 23.9996 17.2259 23.7803 17.1953 23.5321L20.082 21.3237C20.082 21.4189 20.082 21.5396 20.082 21.6858C20.082 21.8286 20.082 21.9255 20.082 21.9765V23.0272Z"/>
<path d="M27.0747 22.8282V21.089C27.0747 20.6164 27.0203 20.1982 26.9115 19.8344C26.8027 19.4672 26.6463 19.1577 26.4423 18.9061C26.2349 18.6545 25.9816 18.4641 25.6824 18.3349C25.3865 18.2023 25.0482 18.136 24.6674 18.136C24.29 18.136 23.9517 18.2023 23.6525 18.3349C23.3566 18.4641 23.1067 18.6545 22.9027 18.9061C22.6953 19.1577 22.5372 19.4672 22.4284 19.8344C22.3196 20.1982 22.2652 20.6164 22.2652 21.089V22.8282C22.2652 23.3009 22.3196 23.7208 22.4284 24.088C22.5372 24.4518 22.6953 24.7579 22.9027 25.0061C23.1101 25.2611 23.3634 25.4532 23.6627 25.5824C23.9619 25.7082 24.3002 25.7711 24.6776 25.7711C25.0584 25.7711 25.3967 25.7065 25.6926 25.5773C25.9884 25.4481 26.2383 25.2577 26.4423 25.0061C26.6463 24.7579 26.8027 24.4518 26.9115 24.088C27.0203 23.7208 27.0747 23.3009 27.0747 22.8282ZM23.2138 22.6395C23.2138 22.5511 23.2138 22.4644 23.2138 22.3794C23.2138 22.2944 23.2138 22.2094 23.2138 22.1244V20.8799C23.2138 20.5331 23.2478 20.2288 23.3158 19.967C23.3872 19.7018 23.4943 19.4859 23.6372 19.3193C23.7562 19.1866 23.9007 19.0863 24.0707 19.0183C24.2441 18.9469 24.443 18.9112 24.6674 18.9112C24.8884 18.9112 25.0822 18.9435 25.2488 19.0081C25.4188 19.0727 25.5617 19.1696 25.6773 19.2989C25.7963 19.4247 25.8898 19.5828 25.9578 19.7732C26.0292 19.9602 26.0785 20.1761 26.1057 20.4209L23.2138 22.6395ZM26.1261 23.0272C26.1261 23.391 26.0887 23.7072 26.0139 23.9758C25.9425 24.2444 25.8286 24.462 25.6722 24.6286C25.5566 24.751 25.4154 24.8446 25.2488 24.9092C25.0822 24.9738 24.8918 25.0061 24.6776 25.0061C24.4736 25.0061 24.29 24.9772 24.1268 24.9194C23.9636 24.8582 23.8242 24.7698 23.7086 24.6541C23.5827 24.5317 23.4807 24.377 23.4025 24.19C23.3243 23.9996 23.2699 23.7803 23.2393 23.5321L26.1261 21.3237C26.1261 21.4189 26.1261 21.5396 26.1261 21.6858C26.1261 21.8286 26.1261 21.9255 26.1261 21.9765V23.0272Z"/>
<path d="M28.6791 21.9459L29.4339 22.1397C29.5189 22.0649 29.6005 21.9986 29.6788 21.9408C29.7604 21.883 29.8471 21.8337 29.9389 21.7929C30.0307 21.7521 30.1327 21.7215 30.2449 21.7011C30.3605 21.6773 30.4965 21.6654 30.6529 21.6654C30.8909 21.6654 31.1017 21.7079 31.2853 21.7929C31.469 21.8779 31.6237 21.9935 31.7495 22.1397C31.8753 22.2893 31.9705 22.4644 32.0351 22.665C32.1031 22.8656 32.1371 23.0816 32.1371 23.3128C32.1371 23.5678 32.1065 23.799 32.0453 24.0064C31.9875 24.2138 31.9008 24.3906 31.7852 24.5368C31.6662 24.6864 31.52 24.8021 31.3465 24.8837C31.1731 24.9619 30.9742 25.001 30.7498 25.001C30.352 25.001 30.0256 24.8922 29.7706 24.6745C29.5189 24.4569 29.3642 24.1373 29.3064 23.7157H28.4088C28.4428 24.0591 28.5261 24.36 28.6587 24.6184C28.7947 24.8769 28.9681 25.0911 29.1789 25.2611C29.3863 25.4311 29.6244 25.5586 29.893 25.6436C30.1616 25.7286 30.4472 25.7711 30.7498 25.7711C31.1442 25.7711 31.4877 25.7099 31.7801 25.5875C32.0725 25.4617 32.3156 25.2883 32.5094 25.0673C32.6998 24.8497 32.8426 24.5895 32.9378 24.2869C33.033 23.9843 33.0806 23.6562 33.0806 23.3026C33.0806 22.9285 33.0296 22.5885 32.9276 22.2825C32.8256 21.9765 32.6794 21.7147 32.489 21.4971C32.2986 21.2829 32.0674 21.1163 31.7954 20.9972C31.5234 20.8782 31.2156 20.8187 30.8722 20.8187C30.6036 20.8187 30.3673 20.851 30.1633 20.9156C29.9593 20.9802 29.7842 21.055 29.638 21.1401L29.8471 19.1611H32.8613V18.2431H29.0514L28.6791 21.9459Z"/>
</mask>
<path d="M21.0307 22.8282V21.089C21.0307 20.6164 20.9763 20.1982 20.8675 19.8344C20.7587 19.4672 20.6023 19.1577 20.3983 18.9061C20.1908 18.6545 19.9375 18.4641 19.6383 18.3349C19.3425 18.2023 19.0042 18.136 18.6234 18.136C18.2459 18.136 17.9076 18.2023 17.6084 18.3349C17.3126 18.4641 17.0627 18.6545 16.8587 18.9061C16.6513 19.1577 16.4931 19.4672 16.3843 19.8344C16.2755 20.1982 16.2211 20.6164 16.2211 21.089V22.8282C16.2211 23.3009 16.2755 23.7208 16.3843 24.088C16.4931 24.4518 16.6513 24.7579 16.8587 25.0061C17.0661 25.2611 17.3194 25.4532 17.6186 25.5824C17.9178 25.7082 18.2561 25.7711 18.6336 25.7711C19.0144 25.7711 19.3527 25.7065 19.6485 25.5773C19.9443 25.4481 20.1942 25.2577 20.3983 25.0061C20.6023 24.7579 20.7587 24.4518 20.8675 24.088C20.9763 23.7208 21.0307 23.3009 21.0307 22.8282ZM17.1698 22.6395C17.1698 22.5511 17.1698 22.4644 17.1698 22.3794C17.1698 22.2944 17.1698 22.2094 17.1698 22.1244V20.8799C17.1698 20.5331 17.2038 20.2288 17.2718 19.967C17.3432 19.7018 17.4503 19.4859 17.5931 19.3193C17.7121 19.1866 17.8566 19.0863 18.0266 19.0183C18.2 18.9469 18.3989 18.9112 18.6234 18.9112C18.8444 18.9112 19.0382 18.9435 19.2048 19.0081C19.3748 19.0727 19.5176 19.1696 19.6332 19.2989C19.7522 19.4247 19.8457 19.5828 19.9137 19.7732C19.9851 19.9602 20.0344 20.1761 20.0616 20.4209L17.1698 22.6395ZM20.082 23.0272C20.082 23.391 20.0446 23.7072 19.9698 23.9758C19.8984 24.2444 19.7845 24.462 19.6281 24.6286C19.5125 24.751 19.3714 24.8446 19.2048 24.9092C19.0382 24.9738 18.8478 25.0061 18.6336 25.0061C18.4296 25.0061 18.2459 24.9772 18.0827 24.9194C17.9195 24.8582 17.7801 24.7698 17.6645 24.6541C17.5387 24.5317 17.4367 24.377 17.3585 24.19C17.2803 23.9996 17.2259 23.7803 17.1953 23.5321L20.082 21.3237C20.082 21.4189 20.082 21.5396 20.082 21.6858C20.082 21.8286 20.082 21.9255 20.082 21.9765V23.0272Z" fill="#635DFF"/>
<path d="M27.0747 22.8282V21.089C27.0747 20.6164 27.0203 20.1982 26.9115 19.8344C26.8027 19.4672 26.6463 19.1577 26.4423 18.9061C26.2349 18.6545 25.9816 18.4641 25.6824 18.3349C25.3865 18.2023 25.0482 18.136 24.6674 18.136C24.29 18.136 23.9517 18.2023 23.6525 18.3349C23.3566 18.4641 23.1067 18.6545 22.9027 18.9061C22.6953 19.1577 22.5372 19.4672 22.4284 19.8344C22.3196 20.1982 22.2652 20.6164 22.2652 21.089V22.8282C22.2652 23.3009 22.3196 23.7208 22.4284 24.088C22.5372 24.4518 22.6953 24.7579 22.9027 25.0061C23.1101 25.2611 23.3634 25.4532 23.6627 25.5824C23.9619 25.7082 24.3002 25.7711 24.6776 25.7711C25.0584 25.7711 25.3967 25.7065 25.6926 25.5773C25.9884 25.4481 26.2383 25.2577 26.4423 25.0061C26.6463 24.7579 26.8027 24.4518 26.9115 24.088C27.0203 23.7208 27.0747 23.3009 27.0747 22.8282ZM23.2138 22.6395C23.2138 22.5511 23.2138 22.4644 23.2138 22.3794C23.2138 22.2944 23.2138 22.2094 23.2138 22.1244V20.8799C23.2138 20.5331 23.2478 20.2288 23.3158 19.967C23.3872 19.7018 23.4943 19.4859 23.6372 19.3193C23.7562 19.1866 23.9007 19.0863 24.0707 19.0183C24.2441 18.9469 24.443 18.9112 24.6674 18.9112C24.8884 18.9112 25.0822 18.9435 25.2488 19.0081C25.4188 19.0727 25.5617 19.1696 25.6773 19.2989C25.7963 19.4247 25.8898 19.5828 25.9578 19.7732C26.0292 19.9602 26.0785 20.1761 26.1057 20.4209L23.2138 22.6395ZM26.1261 23.0272C26.1261 23.391 26.0887 23.7072 26.0139 23.9758C25.9425 24.2444 25.8286 24.462 25.6722 24.6286C25.5566 24.751 25.4154 24.8446 25.2488 24.9092C25.0822 24.9738 24.8918 25.0061 24.6776 25.0061C24.4736 25.0061 24.29 24.9772 24.1268 24.9194C23.9636 24.8582 23.8242 24.7698 23.7086 24.6541C23.5827 24.5317 23.4807 24.377 23.4025 24.19C23.3243 23.9996 23.2699 23.7803 23.2393 23.5321L26.1261 21.3237C26.1261 21.4189 26.1261 21.5396 26.1261 21.6858C26.1261 21.8286 26.1261 21.9255 26.1261 21.9765V23.0272Z" fill="#635DFF"/>
<path d="M28.6791 21.9459L29.4339 22.1397C29.5189 22.0649 29.6005 21.9986 29.6788 21.9408C29.7604 21.883 29.8471 21.8337 29.9389 21.7929C30.0307 21.7521 30.1327 21.7215 30.2449 21.7011C30.3605 21.6773 30.4965 21.6654 30.6529 21.6654C30.8909 21.6654 31.1017 21.7079 31.2853 21.7929C31.469 21.8779 31.6237 21.9935 31.7495 22.1397C31.8753 22.2893 31.9705 22.4644 32.0351 22.665C32.1031 22.8656 32.1371 23.0816 32.1371 23.3128C32.1371 23.5678 32.1065 23.799 32.0453 24.0064C31.9875 24.2138 31.9008 24.3906 31.7852 24.5368C31.6662 24.6864 31.52 24.8021 31.3465 24.8837C31.1731 24.9619 30.9742 25.001 30.7498 25.001C30.352 25.001 30.0256 24.8922 29.7706 24.6745C29.5189 24.4569 29.3642 24.1373 29.3064 23.7157H28.4088C28.4428 24.0591 28.5261 24.36 28.6587 24.6184C28.7947 24.8769 28.9681 25.0911 29.1789 25.2611C29.3863 25.4311 29.6244 25.5586 29.893 25.6436C30.1616 25.7286 30.4472 25.7711 30.7498 25.7711C31.1442 25.7711 31.4877 25.7099 31.7801 25.5875C32.0725 25.4617 32.3156 25.2883 32.5094 25.0673C32.6998 24.8497 32.8426 24.5895 32.9378 24.2869C33.033 23.9843 33.0806 23.6562 33.0806 23.3026C33.0806 22.9285 33.0296 22.5885 32.9276 22.2825C32.8256 21.9765 32.6794 21.7147 32.489 21.4971C32.2986 21.2829 32.0674 21.1163 31.7954 20.9972C31.5234 20.8782 31.2156 20.8187 30.8722 20.8187C30.6036 20.8187 30.3673 20.851 30.1633 20.9156C29.9593 20.9802 29.7842 21.055 29.638 21.1401L29.8471 19.1611H32.8613V18.2431H29.0514L28.6791 21.9459Z" fill="#635DFF"/>
<path d="M21.0307 22.8282V21.089C21.0307 20.6164 20.9763 20.1982 20.8675 19.8344C20.7587 19.4672 20.6023 19.1577 20.3983 18.9061C20.1908 18.6545 19.9375 18.4641 19.6383 18.3349C19.3425 18.2023 19.0042 18.136 18.6234 18.136C18.2459 18.136 17.9076 18.2023 17.6084 18.3349C17.3126 18.4641 17.0627 18.6545 16.8587 18.9061C16.6513 19.1577 16.4931 19.4672 16.3843 19.8344C16.2755 20.1982 16.2211 20.6164 16.2211 21.089V22.8282C16.2211 23.3009 16.2755 23.7208 16.3843 24.088C16.4931 24.4518 16.6513 24.7579 16.8587 25.0061C17.0661 25.2611 17.3194 25.4532 17.6186 25.5824C17.9178 25.7082 18.2561 25.7711 18.6336 25.7711C19.0144 25.7711 19.3527 25.7065 19.6485 25.5773C19.9443 25.4481 20.1942 25.2577 20.3983 25.0061C20.6023 24.7579 20.7587 24.4518 20.8675 24.088C20.9763 23.7208 21.0307 23.3009 21.0307 22.8282ZM17.1698 22.6395C17.1698 22.5511 17.1698 22.4644 17.1698 22.3794C17.1698 22.2944 17.1698 22.2094 17.1698 22.1244V20.8799C17.1698 20.5331 17.2038 20.2288 17.2718 19.967C17.3432 19.7018 17.4503 19.4859 17.5931 19.3193C17.7121 19.1866 17.8566 19.0863 18.0266 19.0183C18.2 18.9469 18.3989 18.9112 18.6234 18.9112C18.8444 18.9112 19.0382 18.9435 19.2048 19.0081C19.3748 19.0727 19.5176 19.1696 19.6332 19.2989C19.7522 19.4247 19.8457 19.5828 19.9137 19.7732C19.9851 19.9602 20.0344 20.1761 20.0616 20.4209L17.1698 22.6395ZM20.082 23.0272C20.082 23.391 20.0446 23.7072 19.9698 23.9758C19.8984 24.2444 19.7845 24.462 19.6281 24.6286C19.5125 24.751 19.3714 24.8446 19.2048 24.9092C19.0382 24.9738 18.8478 25.0061 18.6336 25.0061C18.4296 25.0061 18.2459 24.9772 18.0827 24.9194C17.9195 24.8582 17.7801 24.7698 17.6645 24.6541C17.5387 24.5317 17.4367 24.377 17.3585 24.19C17.2803 23.9996 17.2259 23.7803 17.1953 23.5321L20.082 21.3237C20.082 21.4189 20.082 21.5396 20.082 21.6858C20.082 21.8286 20.082 21.9255 20.082 21.9765V23.0272Z" stroke="#635DFF" stroke-width="0.2" mask="url(#path-4-outside-1_918_179)"/>
<path d="M27.0747 22.8282V21.089C27.0747 20.6164 27.0203 20.1982 26.9115 19.8344C26.8027 19.4672 26.6463 19.1577 26.4423 18.9061C26.2349 18.6545 25.9816 18.4641 25.6824 18.3349C25.3865 18.2023 25.0482 18.136 24.6674 18.136C24.29 18.136 23.9517 18.2023 23.6525 18.3349C23.3566 18.4641 23.1067 18.6545 22.9027 18.9061C22.6953 19.1577 22.5372 19.4672 22.4284 19.8344C22.3196 20.1982 22.2652 20.6164 22.2652 21.089V22.8282C22.2652 23.3009 22.3196 23.7208 22.4284 24.088C22.5372 24.4518 22.6953 24.7579 22.9027 25.0061C23.1101 25.2611 23.3634 25.4532 23.6627 25.5824C23.9619 25.7082 24.3002 25.7711 24.6776 25.7711C25.0584 25.7711 25.3967 25.7065 25.6926 25.5773C25.9884 25.4481 26.2383 25.2577 26.4423 25.0061C26.6463 24.7579 26.8027 24.4518 26.9115 24.088C27.0203 23.7208 27.0747 23.3009 27.0747 22.8282ZM23.2138 22.6395C23.2138 22.5511 23.2138 22.4644 23.2138 22.3794C23.2138 22.2944 23.2138 22.2094 23.2138 22.1244V20.8799C23.2138 20.5331 23.2478 20.2288 23.3158 19.967C23.3872 19.7018 23.4943 19.4859 23.6372 19.3193C23.7562 19.1866 23.9007 19.0863 24.0707 19.0183C24.2441 18.9469 24.443 18.9112 24.6674 18.9112C24.8884 18.9112 25.0822 18.9435 25.2488 19.0081C25.4188 19.0727 25.5617 19.1696 25.6773 19.2989C25.7963 19.4247 25.8898 19.5828 25.9578 19.7732C26.0292 19.9602 26.0785 20.1761 26.1057 20.4209L23.2138 22.6395ZM26.1261 23.0272C26.1261 23.391 26.0887 23.7072 26.0139 23.9758C25.9425 24.2444 25.8286 24.462 25.6722 24.6286C25.5566 24.751 25.4154 24.8446 25.2488 24.9092C25.0822 24.9738 24.8918 25.0061 24.6776 25.0061C24.4736 25.0061 24.29 24.9772 24.1268 24.9194C23.9636 24.8582 23.8242 24.7698 23.7086 24.6541C23.5827 24.5317 23.4807 24.377 23.4025 24.19C23.3243 23.9996 23.2699 23.7803 23.2393 23.5321L26.1261 21.3237C26.1261 21.4189 26.1261 21.5396 26.1261 21.6858C26.1261 21.8286 26.1261 21.9255 26.1261 21.9765V23.0272Z" stroke="#635DFF" stroke-width="0.2" mask="url(#path-4-outside-1_918_179)"/>
<path d="M28.6791 21.9459L29.4339 22.1397C29.5189 22.0649 29.6005 21.9986 29.6788 21.9408C29.7604 21.883 29.8471 21.8337 29.9389 21.7929C30.0307 21.7521 30.1327 21.7215 30.2449 21.7011C30.3605 21.6773 30.4965 21.6654 30.6529 21.6654C30.8909 21.6654 31.1017 21.7079 31.2853 21.7929C31.469 21.8779 31.6237 21.9935 31.7495 22.1397C31.8753 22.2893 31.9705 22.4644 32.0351 22.665C32.1031 22.8656 32.1371 23.0816 32.1371 23.3128C32.1371 23.5678 32.1065 23.799 32.0453 24.0064C31.9875 24.2138 31.9008 24.3906 31.7852 24.5368C31.6662 24.6864 31.52 24.8021 31.3465 24.8837C31.1731 24.9619 30.9742 25.001 30.7498 25.001C30.352 25.001 30.0256 24.8922 29.7706 24.6745C29.5189 24.4569 29.3642 24.1373 29.3064 23.7157H28.4088C28.4428 24.0591 28.5261 24.36 28.6587 24.6184C28.7947 24.8769 28.9681 25.0911 29.1789 25.2611C29.3863 25.4311 29.6244 25.5586 29.893 25.6436C30.1616 25.7286 30.4472 25.7711 30.7498 25.7711C31.1442 25.7711 31.4877 25.7099 31.7801 25.5875C32.0725 25.4617 32.3156 25.2883 32.5094 25.0673C32.6998 24.8497 32.8426 24.5895 32.9378 24.2869C33.033 23.9843 33.0806 23.6562 33.0806 23.3026C33.0806 22.9285 33.0296 22.5885 32.9276 22.2825C32.8256 21.9765 32.6794 21.7147 32.489 21.4971C32.2986 21.2829 32.0674 21.1163 31.7954 20.9972C31.5234 20.8782 31.2156 20.8187 30.8722 20.8187C30.6036 20.8187 30.3673 20.851 30.1633 20.9156C29.9593 20.9802 29.7842 21.055 29.638 21.1401L29.8471 19.1611H32.8613V18.2431H29.0514L28.6791 21.9459Z" stroke="#635DFF" stroke-width="0.2" mask="url(#path-4-outside-1_918_179)"/>
</svg>
