<svg width="48" height="49" viewBox="0 0 48 49" fill="none" xmlns="http://www.w3.org/2000/svg">
<g clip-path="url(#clip0_827_219)">
<path d="M14.8123 14.0075C15.1324 14.003 15.4465 14.0938 15.7147 14.2684C15.983 14.443 16.1933 14.6934 16.3188 14.9878C16.4444 15.2822 16.4796 15.6073 16.4199 15.9217C16.3602 16.2361 16.2083 16.5257 15.9835 16.7536C15.7588 16.9815 15.4714 17.1374 15.1578 17.2015C14.8442 17.2656 14.5187 17.235 14.2226 17.1136C13.9265 16.9921 13.6731 16.7854 13.4948 16.5196C13.3165 16.2538 13.2213 15.941 13.2213 15.6209C13.2212 15.1968 13.3881 14.7898 13.6859 14.4879C13.9836 14.1859 14.3883 14.0133 14.8123 14.0075ZM14.8123 12.0355C14.1042 12.0399 13.4132 12.2539 12.8265 12.6506C12.2398 13.0472 11.7838 13.6087 11.5158 14.2643C11.2479 14.9198 11.1801 15.64 11.3209 16.334C11.4618 17.028 11.805 17.6648 12.3074 18.164C12.8097 18.6632 13.4486 19.0025 14.1435 19.139C14.8383 19.2755 15.5581 19.2032 16.2119 18.9312C16.8658 18.6592 17.4244 18.1996 17.8174 17.6105C18.2104 17.0214 18.4202 16.3291 18.4202 15.6209C18.4202 15.1482 18.3267 14.6801 18.1451 14.2436C17.9635 13.8072 17.6974 13.4109 17.3621 13.0777C17.0268 12.7444 16.6289 12.4808 16.1913 12.3019C15.7537 12.1231 15.2851 12.0325 14.8123 12.0355Z" fill="#635DFF"/>
<path d="M14.8123 39.307C15.1324 39.3026 15.4465 39.3934 15.7147 39.568C15.983 39.7425 16.1933 39.9929 16.3188 40.2873C16.4444 40.5817 16.4796 40.9068 16.4199 41.2213C16.3602 41.5357 16.2083 41.8253 15.9835 42.0532C15.7588 42.2811 15.4714 42.437 15.1578 42.5011C14.8442 42.5652 14.5187 42.5346 14.2226 42.4131C13.9265 42.2917 13.6731 42.0849 13.4948 41.8191C13.3165 41.5533 13.2213 41.2405 13.2213 40.9205C13.2212 40.4964 13.3881 40.0894 13.6859 39.7874C13.9836 39.4855 14.3883 39.3129 14.8123 39.307ZM14.8123 37.335C14.1042 37.3395 13.4132 37.5535 12.8265 37.9501C12.2398 38.3468 11.7838 38.9083 11.5158 39.5638C11.2479 40.2194 11.1801 40.9396 11.3209 41.6336C11.4618 42.3276 11.805 42.9644 12.3074 43.4636C12.8097 43.9628 13.4486 44.302 14.1435 44.4386C14.8383 44.5751 15.5581 44.5028 16.2119 44.2308C16.8658 43.9588 17.4244 43.4992 17.8174 42.9101C18.2104 42.321 18.4202 41.6286 18.4202 40.9205C18.4202 40.4477 18.3267 39.9797 18.1451 39.5432C17.9635 39.1067 17.6974 38.7105 17.3621 38.3772C17.0268 38.044 16.6289 37.7804 16.1913 37.6015C15.7537 37.4226 15.2851 37.3321 14.8123 37.335Z" fill="#635DFF"/>
<path d="M33.2101 39.307C33.5292 39.307 33.8411 39.4016 34.1065 39.5789C34.3718 39.7562 34.5786 40.0081 34.7007 40.303C34.8228 40.5978 34.8548 40.9222 34.7925 41.2352C34.7303 41.5481 34.5766 41.8356 34.351 42.0613C34.1253 42.2869 33.8378 42.4406 33.5249 42.5028C33.2119 42.5651 32.8874 42.5331 32.5926 42.411C32.2978 42.2889 32.0458 42.0821 31.8686 41.8168C31.6913 41.5514 31.5966 41.2395 31.5966 40.9204C31.5936 40.7077 31.6333 40.4965 31.7133 40.2994C31.7933 40.1023 31.912 39.9232 32.0625 39.7728C32.2129 39.6224 32.392 39.5036 32.5891 39.4236C32.7862 39.3436 32.9974 39.3039 33.2101 39.307ZM33.2101 37.335C32.5009 37.335 31.8077 37.5452 31.2181 37.9392C30.6285 38.3332 30.1689 38.8932 29.8976 39.5483C29.6262 40.2035 29.5552 40.9244 29.6935 41.6199C29.8319 42.3154 30.1734 42.9542 30.6748 43.4557C31.1762 43.9571 31.8151 44.2986 32.5106 44.4369C33.2061 44.5753 33.927 44.5043 34.5822 44.2329C35.2373 43.9615 35.7973 43.502 36.1912 42.9124C36.5852 42.3227 36.7955 41.6295 36.7955 40.9204C36.7955 39.9695 36.4178 39.0575 35.7454 38.3851C35.073 37.7127 34.161 37.335 33.2101 37.335Z" fill="#D0CEFF"/>
<path d="M9.63583 26.803C10.0637 26.803 10.4741 26.973 10.7767 27.2756C11.0793 27.5782 11.2493 27.9886 11.2493 28.4165C11.2493 28.8444 11.0793 29.2548 10.7767 29.5574C10.4741 29.8599 10.0637 30.0299 9.63583 30.0299C9.20792 30.0299 8.79756 29.8599 8.49498 29.5574C8.1924 29.2548 8.0224 28.8444 8.0224 28.4165C8.0224 27.9886 8.1924 27.5782 8.49498 27.2756C8.79756 26.973 9.20792 26.803 9.63583 26.803ZM9.63583 24.8311C8.9267 24.8311 8.23352 25.0413 7.64389 25.4353C7.05427 25.8293 6.59472 26.3892 6.32335 27.0444C6.05197 27.6995 5.98096 28.4205 6.11931 29.116C6.25765 29.8115 6.59912 30.4503 7.10055 30.9518C7.60198 31.4532 8.24087 31.7947 8.93637 31.933C9.63188 32.0714 10.3528 32.0004 11.0079 31.729C11.6631 31.4576 12.2231 30.9981 12.617 30.4084C13.011 29.8188 13.2213 29.1256 13.2213 28.4165C13.2213 27.4656 12.8435 26.5536 12.1711 25.8812C11.4987 25.2088 10.5867 24.8311 9.63583 24.8311Z" fill="#D0CEFF"/>
<path d="M38.4089 26.803C38.8369 26.803 39.2472 26.973 39.5498 27.2756C39.8524 27.5782 40.0224 27.9886 40.0224 28.4165C40.0224 28.8444 39.8524 29.2548 39.5498 29.5574C39.2472 29.8599 38.8369 30.0299 38.4089 30.0299C38.1971 30.0299 37.9873 29.9882 37.7915 29.9071C37.5958 29.826 37.4179 29.7072 37.2681 29.5574C37.1182 29.4075 36.9994 29.2297 36.9183 29.0339C36.8372 28.8382 36.7955 28.6284 36.7955 28.4165C36.7955 28.2046 36.8372 27.9948 36.9183 27.799C36.9994 27.6033 37.1182 27.4254 37.2681 27.2756C37.4179 27.1258 37.5958 27.0069 37.7915 26.9259C37.9873 26.8448 38.1971 26.803 38.4089 26.803ZM38.4089 24.8311C37.6998 24.8311 37.0066 25.0413 36.417 25.4353C35.8274 25.8293 35.3678 26.3892 35.0964 27.0444C34.8251 27.6995 34.7541 28.4205 34.8924 29.116C35.0308 29.8115 35.3722 30.4503 35.8737 30.9518C36.3751 31.4532 37.014 31.7947 37.7095 31.933C38.405 32.0714 39.1259 32.0004 39.781 31.729C40.4362 31.4576 40.9962 30.9981 41.3901 30.4084C41.7841 29.8188 41.9944 29.1256 41.9944 28.4165C41.9944 27.4656 41.6166 26.5536 40.9442 25.8812C40.2718 25.2088 39.3599 24.8311 38.4089 24.8311Z" fill="#D0CEFF"/>
<path d="M20.8852 7.01591L14.1849 9.54812V4.5061L20.8852 7.01591Z" fill="#635DFF"/>
<path d="M15.4174 5.64893H14.1849V12.7436H15.4174V5.64893Z" fill="#635DFF"/>
<path d="M23.3726 24.7862C23.0576 24.7862 22.7555 24.661 22.5327 24.4383C22.31 24.2156 22.1849 23.9135 22.1849 23.5985V16.943C22.1849 16.6281 22.31 16.326 22.5327 16.1032C22.7555 15.8805 23.0576 15.7554 23.3726 15.7554H30.0504C30.3654 15.7554 30.6675 15.8805 30.8902 16.1032C31.113 16.326 31.2381 16.6281 31.2381 16.943C31.2381 17.258 31.113 17.5601 30.8902 17.7829C30.6675 18.0056 30.3654 18.1307 30.0504 18.1307H24.5602V23.5985C24.5602 23.9135 24.4351 24.2156 24.2124 24.4383C23.9896 24.661 23.6876 24.7862 23.3726 24.7862Z" fill="#635DFF"/>
<path d="M24.5154 39.3295C24.2573 39.3295 24.0062 39.2455 23.8002 39.09C23.5941 38.9346 23.4443 38.7163 23.3734 38.4681C23.3025 38.22 23.3144 37.9555 23.4072 37.7146C23.5001 37.4738 23.6688 37.2698 23.888 37.1335C25.5521 36.1149 26.9119 34.668 27.8255 32.944C28.739 31.22 29.1727 29.2822 29.0811 27.3333C28.9895 25.3844 28.376 23.4958 27.3047 21.8651C26.2335 20.2344 24.7439 18.9214 22.9916 18.0634C22.7136 17.9213 22.5028 17.6753 22.4048 17.3788C22.3067 17.0824 22.3294 16.7592 22.4679 16.4794C22.6063 16.1995 22.8494 15.9854 23.1446 15.8835C23.4397 15.7815 23.7631 15.7999 24.0448 15.9346C26.1694 16.9876 27.9734 18.59 29.2699 20.5755C30.5663 22.5609 31.3079 24.8571 31.4176 27.2257C31.5273 29.5944 31.0013 31.9493 29.894 34.0461C28.7867 36.1429 27.1385 37.9053 25.1204 39.1503C24.9386 39.2635 24.7295 39.3254 24.5154 39.3295Z" fill="#635DFF"/>
</g>
<defs>
<clipPath id="clip0_827_219">
<rect width="35.944" height="40" fill="white" transform="translate(6.02802 4.5061)"/>
</clipPath>
</defs>
</svg>
