<svg width="48" height="48" viewBox="0 0 48 48" fill="none" xmlns="http://www.w3.org/2000/svg">
<path d="M28 41.8764H33.1072C34.9538 41.8764 36.5906 40.6877 37.1614 38.9307L42.791 21.6031C43.3617 19.8461 42.7367 17.9239 41.2438 16.8391L26.5035 6.13167C25.0106 5.04678 22.987 5.04678 21.4941 6.13167L6.75616 16.8391C5.26326 17.9239 4.63826 19.8484 5.20901 21.6031L10.8386 38.9307C11.4094 40.6877 13.0462 41.8764 14.8928 41.8764H19.3008" stroke="#635DFF" stroke-width="3.5" stroke-linecap="round" stroke-linejoin="round"/>
<path d="M22.4184 13.5132L13.1098 20.2485C12.165 20.9328 11.7708 22.1424 12.1331 23.2452L15.6891 34.1465C16.0484 35.2523 17.083 36 18.2481 36H29.7535C30.9186 36 31.9532 35.2523 32.3126 34.1465L35.8685 23.2452C36.2279 22.1395 35.8337 20.9299 34.8919 20.2485L25.5832 13.5132C24.6384 12.8289 23.3603 12.8289 22.4184 13.5132Z" fill="#A5A0FF"/>
<path d="M27.5412 44.7514L24.8668 42.4755C24.4823 42.1476 24.4823 41.6146 24.8668 41.2868L27.5412 39.0109C28.1639 38.4826 29.2275 38.8576 29.2275 39.6052V44.157C29.2275 44.907 28.1639 45.282 27.5412 44.7514Z" fill="#635DFF"/>
</svg>
