<svg width="48" height="48" viewBox="0 0 48 48" fill="none" xmlns="http://www.w3.org/2000/svg">
<path d="M24 46C36.1503 46 46 36.1503 46 24C46 11.8497 36.1503 2 24 2C11.8497 2 2 11.8497 2 24C2 36.1503 11.8497 46 24 46Z" fill="#D0CEFF"/>
<path d="M10.8837 29.5229C9.48581 28.125 8.61568 26.1992 8.60001 24.0722V23.9677C8.63659 21.8721 9.48058 19.9307 10.9752 18.4857C12.4724 17.0407 14.44 16.2646 16.5199 16.3012C20.2199 16.3665 23.2588 18.9586 23.9983 22.4443H29.2425H36.9169C36.9221 22.4443 36.9273 22.4443 36.9325 22.4443H38.0849C38.9315 22.4443 39.6187 23.1316 39.6187 23.9782C39.6187 24.8248 38.9315 25.512 38.0849 25.512H36.0389V28.7991C36.0389 29.6457 35.3517 30.3329 34.5051 30.3329H29.6057C28.7591 30.3329 28.0719 29.6457 28.0719 28.7991V25.512H24.027C23.332 29.0735 20.2016 31.7805 16.4363 31.8066C14.2728 31.8223 12.3052 30.9444 10.8837 29.5229ZM18.9788 21.488C18.3307 20.84 17.4423 20.4376 16.4494 20.4193C14.4322 20.3853 12.7625 21.9975 12.7259 24.0147V24.0513C12.739 26.0685 14.393 27.699 16.4102 27.686C17.3875 27.6807 18.3046 27.2914 18.9918 26.5964C19.6686 25.9118 20.0396 25.0077 20.0475 24.0487C20.0475 24.0383 20.0475 24.0252 20.0475 24.0147C20.0292 23.0244 19.6268 22.1334 18.9788 21.488Z" fill="#635DFF"/>
</svg>
