<svg width="48" height="49" viewBox="0 0 48 49" fill="none" xmlns="http://www.w3.org/2000/svg">
<g clip-path="url(#clip0_827_221)">
<path d="M8.82923 16.0961C8.82923 14.5399 9.29068 13.0187 10.1552 11.7248C11.0198 10.4309 12.2486 9.42247 13.6863 8.82696C15.124 8.23144 16.706 8.07562 18.2323 8.37921C19.7586 8.6828 21.1605 9.43217 22.2609 10.5325C23.3613 11.6329 24.1106 13.0349 24.4142 14.5611C24.7178 16.0874 24.562 17.6694 23.9665 19.1071C23.3709 20.5448 22.3625 21.7736 21.0686 22.6382C19.7747 23.5027 18.2535 23.9642 16.6973 23.9642C15.6632 23.9673 14.6387 23.7659 13.6827 23.3716C12.7266 22.9773 11.8581 22.3979 11.1268 21.6666C10.3956 20.9354 9.81614 20.0668 9.42184 19.1108C9.02753 18.1548 8.82612 17.1302 8.82923 16.0961Z" fill="#A5A0FF"/>
<path d="M6.49705 29.6414C7.28313 28.8481 8.21892 28.219 9.25011 27.7903C10.2813 27.3617 11.3874 27.1421 12.5041 27.1443H20.8669C21.9868 27.1441 23.0958 27.3646 24.1306 27.793C25.1653 28.2215 26.1055 28.8495 26.8975 29.6414C28.488 31.2466 29.3847 33.4122 29.3946 35.672V37.3681C29.3946 38.274 29.0347 39.1428 28.3941 39.7834C27.7535 40.424 26.8847 40.7839 25.9788 40.7839H7.41575C6.50983 40.7839 5.64101 40.424 5.00043 39.7834C4.35984 39.1428 3.99997 38.274 3.99997 37.3681V35.672C3.9998 34.5521 4.22024 33.443 4.64868 32.4083C5.07713 31.3736 5.70522 30.4334 6.49705 29.6414Z" fill="#D0CEFF"/>
<path d="M42.6808 19.0408C41.8291 18.1949 40.6774 17.7202 39.477 17.7202C38.2767 17.7202 37.125 18.1949 36.2733 19.0408L35.4017 19.9124L34.6243 19.1115C32.881 17.3682 30.0542 17.2504 28.2638 18.923C27.8201 19.3368 27.4642 19.8357 27.2172 20.3899C26.9703 20.9441 26.8373 21.5423 26.8263 22.1489C26.8153 22.7556 26.9265 23.3582 27.1532 23.921C27.38 24.4838 27.7176 24.9952 28.146 25.4248L29.0177 26.2964L35.0718 32.3506C35.1639 32.4384 35.2862 32.4874 35.4134 32.4874C35.5407 32.4874 35.663 32.4384 35.755 32.3506L41.8092 26.2964L42.6808 25.4248C43.1018 25.0066 43.4358 24.5093 43.6638 23.9615C43.8918 23.4136 44.0091 22.8261 44.0091 22.2328C44.0091 21.6394 43.8918 21.0519 43.6638 20.5041C43.4358 19.9563 43.1018 19.459 42.6808 19.0408Z" fill="#635DFF"/>
</g>
<defs>
<clipPath id="clip0_827_221">
<rect width="40" height="32.556" fill="white" transform="translate(4 8.22803)"/>
</clipPath>
</defs>
</svg>
