<svg width="48" height="48" viewBox="0 0 48 48" fill="none" xmlns="http://www.w3.org/2000/svg">
<path fill-rule="evenodd" clip-rule="evenodd" d="M18 38C18 34.6926 20.6926 32 24 32C27.3074 32 30 34.69 30 38C30 41.3074 27.3074 44 24 44C20.6926 44 18 41.3074 18 38ZM22 38C22 36.8975 22.8975 36 24 36C25.1025 36 26 36.8967 26 38C26 39.1025 25.1025 40 24 40C22.8975 40 22 39.1025 22 38Z" fill="#635DFF"/>
<path d="M35.7785 28H12.2215C9.88974 28 8 26.1103 8 23.7785L8 8.22151C8 5.88974 9.88974 4 12.2215 4H35.7785C38.1103 4 40 5.88974 40 8.22151V23.7785C40 26.1103 38.1103 28 35.7785 28Z" fill="#D0CEFF"/>
<path d="M39.8529 39.9399H28.97C27.8819 39.9399 27 39.058 27 37.97C27 36.8819 27.8819 36 28.97 36H39.8529C40.941 36 41.8229 36.8819 41.8229 37.97C41.8229 39.058 40.941 39.9399 39.8529 39.9399Z" fill="#635DFF"/>
<path d="M18.8529 39.9399H7.96996C6.88193 39.9399 6 39.058 6 37.97C6 36.8819 6.88193 36 7.96996 36H18.8529C19.941 36 20.8229 36.8819 20.8229 37.97C20.8229 39.058 19.941 39.9399 18.8529 39.9399Z" fill="#635DFF"/>
<path d="M29.3913 14.2683H18.3111C17.7598 14.2683 17.2607 13.9356 17.0496 13.424C16.8386 12.9149 16.9553 12.3264 17.3451 11.9366L20.8813 8.40042C21.4152 7.86653 22.2793 7.86653 22.8132 8.40042C23.3471 8.93432 23.3471 9.79849 22.8132 10.3324L21.6089 11.5392H29.3938C30.1487 11.5392 30.7596 12.1501 30.7596 12.905C30.7596 13.6599 30.1462 14.2683 29.3913 14.2683Z" fill="#635DFF"/>
<path d="M25.8552 24.2702C25.5051 24.2702 25.155 24.1361 24.8893 23.8704C24.3554 23.3365 24.3554 22.4723 24.8893 21.9384L26.0961 20.7316H18.3112C17.5563 20.7316 16.9454 20.1207 16.9454 19.3658C16.9454 18.6109 17.5563 18 18.3112 18H29.3938C29.9451 18 30.4443 18.3328 30.6553 18.8443C30.8664 19.3534 30.7497 19.9419 30.3598 20.3318L26.8212 23.8704C26.5555 24.1386 26.2054 24.2702 25.8552 24.2702Z" fill="#635DFF"/>
</svg>
