<svg width="48" height="48" viewBox="0 0 48 48" fill="none" xmlns="http://www.w3.org/2000/svg">
<path d="M4 31.988V10.0061C4 7.79333 5.79333 6 8.00613 6H39.9939C42.2067 6 44 7.79333 44 10.0061V31.988C44 34.2008 42.2067 35.9941 39.9939 35.9941H8.00613C5.79333 35.9941 4 34.2008 4 31.988Z" fill="#D0CEFF"/>
<path d="M32.0122 43.9946H16.082C14.9791 43.9946 14.0836 43.1014 14.0836 41.9962C14.0836 40.8934 14.9767 39.9979 16.082 39.9979H32.0122C33.1151 39.9979 34.0106 40.891 34.0106 41.9962C34.0106 43.0991 33.1151 43.9946 32.0122 43.9946Z" fill="#D0CEFF"/>
<path d="M17.8494 27.5365V14.4906C17.8494 13.6776 18.7237 13.1639 19.433 13.5621L31.1121 20.0851C31.8402 20.4904 31.8402 21.5367 31.1121 21.9444L19.433 28.4673C18.7237 28.8632 17.8494 28.3495 17.8494 27.5365Z" fill="#635DFF"/>
</svg>
