<svg width="48" height="48" viewBox="0 0 48 48" fill="none" xmlns="http://www.w3.org/2000/svg">
<path fill-rule="evenodd" clip-rule="evenodd" d="M34.0544 15.0216L24.8001 11.9395C24.5415 11.8522 24.2704 11.8101 24.0008 11.8117C23.7312 11.8101 23.4601 11.8522 23.1999 11.9395L13.9472 15.0216C12.8113 15.4003 12.0446 16.463 12.0446 17.6612V27.4281L12.0571 27.4639C12.2394 30.0848 19.0472 36.5203 23.9525 38.2686H24.0491C28.9543 36.5203 35.7637 30.0848 35.9445 27.4639L35.9554 27.4281V17.6612C35.9554 16.463 35.1903 15.4003 34.0544 15.0216Z" fill="#635DFF"/>
<path d="M38.9014 40.7735L37.5959 42.079C36.9911 42.6839 35.9554 42.2553 35.9554 41.3993L35.9554 37.0412C35.9554 36.51 36.3862 36.0803 36.9163 36.0803L41.2744 36.0803C42.1304 36.0803 42.5589 37.116 41.954 37.7209L40.8054 38.8696L43.6058 41.791C44.1314 42.3167 44.1314 43.1693 43.6058 43.695C43.0801 44.2206 42.2275 44.2206 41.7018 43.695L38.9014 40.7735Z" fill="#A5A0FF"/>
<path d="M38.946 7.31571L37.6406 6.01024C37.0357 5.40536 36 5.83391 36 6.6899L36 11.048C36 11.5792 36.4308 12.0089 36.9609 12.0089L41.319 12.0089C42.175 12.0089 42.6035 10.9732 41.9986 10.3683L40.85 9.21965L43.6504 6.29818C44.176 5.77253 44.176 4.91988 43.6504 4.39424C43.1247 3.86859 42.2721 3.86859 41.7464 4.39424L38.946 7.31571Z" fill="#D0CEFF"/>
<path d="M9.05393 40.7736L10.3594 42.0791C10.9643 42.684 12 42.2554 12 41.3994L12 37.0413C12 36.51 11.5692 36.0804 11.0391 36.0804L6.68094 36.0804C5.82494 36.0804 5.39638 37.116 6.00127 37.7209L7.14997 38.8696L4.34953 41.7911C3.82388 42.3168 3.82388 43.1695 4.34953 43.6951C4.87519 44.2208 5.72785 44.2208 6.2535 43.6951L9.05393 40.7736Z" fill="#D0CEFF"/>
<path d="M9.05393 7.30672L10.3594 6.00124C10.9643 5.39635 12 5.82491 12 6.68091L12 11.0391C12 11.5703 11.5692 12 11.0391 12L6.68094 12C5.82494 12 5.39638 10.9643 6.00127 10.3594L7.14997 9.21069L4.34953 6.28918C3.82388 5.76352 3.82388 4.91086 4.34953 4.38521C4.87519 3.85955 5.72785 3.85955 6.2535 4.38521L9.05393 7.30672Z" fill="#A5A0FF"/>
</svg>
