<svg width="48" height="48" viewBox="0 0 48 48" fill="none" xmlns="http://www.w3.org/2000/svg">
<path d="M7.15708 19.3589C6.99182 19.3589 7.09295 18.6411 7.21875 17.9135C7.34208 17.2006 7.532 16.5001 7.79099 15.8243L10.8495 7.84499C11.2368 6.8041 11.8263 6 12.7734 6H34.933C35.8826 6 36.4697 6.8041 36.8594 7.84499L39.9179 15.8243C40.1769 16.5001 40.3693 17.2006 40.4902 17.9135C40.616 18.6411 40.7171 19.3589 40.5518 19.3589" fill="#D0CEFF"/>
<path d="M7.1569 34.0522C6.99164 34.0522 7.09277 33.3344 7.21856 32.6068C7.34189 31.8939 7.53182 31.1934 7.79081 30.5176L10.8493 22.5383C11.2366 21.4974 11.8261 20.6933 12.7757 20.6933H34.9353C35.8849 20.6933 36.472 21.4974 36.8617 22.5383L39.9202 30.5176C40.1792 31.1934 40.3716 31.8939 40.4925 32.6068C40.6183 33.3344 40.7194 34.0522 40.5541 34.0522" fill="#D0CEFF"/>
<path d="M9.54946 31.6226H38.1739C39.533 31.6226 40.6355 32.7252 40.6355 34.0843V39.6538C40.6355 41.0128 39.533 42.1154 38.1739 42.1154H9.54946C8.19038 42.1154 7.08783 41.0128 7.08783 39.6538V34.0843C7.08783 32.7252 8.19038 31.6226 9.54946 31.6226Z" fill="#A5A0FF"/>
<path d="M35.5594 38.0209C36.2418 38.0209 36.7951 37.4676 36.7951 36.7851C36.7951 36.1026 36.2418 35.5494 35.5594 35.5494C34.8769 35.5494 34.3236 36.1026 34.3236 36.7851C34.3236 37.4676 34.8769 38.0209 35.5594 38.0209Z" fill="#635DFF"/>
<path d="M9.54946 16.9293H38.1739C39.533 16.9293 40.6355 18.0319 40.6355 19.3909V24.9604C40.6355 26.3195 39.533 27.4221 38.1739 27.4221H9.54946C8.19038 27.4221 7.08783 26.3195 7.08783 24.9604V19.3909C7.08783 18.0319 8.19038 16.9293 9.54946 16.9293Z" fill="#A5A0FF"/>
<path d="M35.5594 23.3276C36.2418 23.3276 36.7951 22.7743 36.7951 22.0918C36.7951 21.4094 36.2418 20.8561 35.5594 20.8561C34.8769 20.8561 34.3236 21.4094 34.3236 22.0918C34.3236 22.7743 34.8769 23.3276 35.5594 23.3276Z" fill="#635DFF"/>
</svg>
