<svg width="48" height="48" viewBox="0 0 48 48" fill="none" xmlns="http://www.w3.org/2000/svg">
<path d="M39.9936 44.2103H8.00643C5.79347 44.2103 4 42.4168 4 40.2039V28H44V40.2039C44 42.4168 42.2065 44.2103 39.9936 44.2103Z" fill="#A5A0FF"/>
<path d="M11.9572 17.9188V10.0898C11.9572 6.73144 14.7428 4 18.1671 4H29.7763C33.2006 4 35.9863 6.73144 35.9863 10.0898V17.9188H31.9799V10.0898C31.9799 8.94205 30.99 8.00643 29.7763 8.00643H18.1671C16.951 8.00643 15.9636 8.94205 15.9636 10.0898V17.9188H11.9572Z" fill="#635DFF"/>
<path d="M8.00643 13.976H40C42.213 13.976 44.0064 15.7695 44.0064 17.9824V27.9506H4V17.9824C4 15.7695 5.79347 13.976 8.00643 13.976Z" fill="#D0CEFF"/>
<path d="M23.9411 34.0491C22.8169 34.0491 21.9072 33.1394 21.9072 32.0152V26.0339C21.9072 24.9097 22.8169 24 23.9411 24C25.0652 24 25.9749 24.9097 25.9749 26.0339V32.0129C25.9749 33.137 25.0652 34.0491 23.9411 34.0491Z" fill="#635DFF"/>
</svg>
