<svg width="48" height="48" viewBox="0 0 48 48" fill="none" xmlns="http://www.w3.org/2000/svg">
<path d="M37.9835 14.1868V40C37.9835 42.2076 36.1944 43.9966 33.9869 43.9966H13.9966C11.7891 43.9966 10 42.2076 10 40V8.02494C10 5.81738 11.7891 4.0283 13.9966 4.0283H27.9966L37.9835 14.1868Z" fill="#D0CEFF"/>
<path d="M38.0001 14.1209H31.241C29.4167 14.1209 27.9379 12.6421 27.9379 10.8178V4L38.0001 14.1209Z" fill="#635DFF"/>
<path d="M33.8976 37.1199L28.9756 32.2004C28.3172 31.542 27.2501 31.542 26.5917 32.2004C25.9334 32.8588 25.9334 33.9259 26.5917 34.5843L31.5137 39.5062C32.1721 40.1646 33.2392 40.1646 33.8976 39.5062C34.5559 38.8454 34.5559 37.7783 33.8976 37.1199Z" fill="#A5A0FF"/>
<path d="M22.0394 37.1223L26.9613 32.2004C27.6197 31.542 28.6868 31.542 29.3452 32.2004C30.0036 32.8588 30.0036 33.9259 29.3452 34.5843L24.4233 39.5062C23.7649 40.1646 22.6978 40.1646 22.0394 39.5062C21.381 38.8478 21.381 37.7807 22.0394 37.1223Z" fill="#A5A0FF"/>
<path d="M28 36C30.7614 36 33 33.7614 33 31C33 28.2386 30.7614 26 28 26C25.2386 26 23 28.2386 23 31C23 33.7614 25.2386 36 28 36Z" fill="#635DFF"/>
<path d="M28 32.6959C28.9366 32.6959 29.6959 31.9366 29.6959 31C29.6959 30.0634 28.9366 29.3041 28 29.3041C27.0634 29.3041 26.3041 30.0634 26.3041 31C26.3041 31.9366 27.0634 32.6959 28 32.6959Z" fill="#D0CEFF"/>
</svg>
