<svg width="48" height="48" viewBox="0 0 48 48" fill="none" xmlns="http://www.w3.org/2000/svg">
<path d="M4 35.9985V12.0015C4 9.79125 5.79125 8 8.00147 8H39.9921C42.2023 8 43.9935 9.79125 43.9935 12.0015V35.9985C43.9935 38.2088 42.2023 40 39.9921 40H8.00147C5.79125 40 4 38.2088 4 35.9985Z" fill="#D0CEFF"/>
<path d="M8.96654 13.1101C9.52292 13.1101 9.97396 12.6591 9.97396 12.1027C9.97396 11.5463 9.52292 11.0953 8.96654 11.0953C8.41015 11.0953 7.95911 11.5463 7.95911 12.1027C7.95911 12.6591 8.41015 13.1101 8.96654 13.1101Z" fill="#635DFF"/>
<path d="M12.2124 13.1101C12.7688 13.1101 13.2199 12.6591 13.2199 12.1027C13.2199 11.5463 12.7688 11.0953 12.2124 11.0953C11.6561 11.0953 11.205 11.5463 11.205 12.1027C11.205 12.6591 11.6561 13.1101 12.2124 13.1101Z" fill="#635DFF"/>
<path d="M15.4537 13.1101C16.01 13.1101 16.4611 12.6591 16.4611 12.1027C16.4611 11.5463 16.01 11.0953 15.4537 11.0953C14.8973 11.0953 14.4462 11.5463 14.4462 12.1027C14.4462 12.6591 14.8973 13.1101 15.4537 13.1101Z" fill="#635DFF"/>
<path d="M15.9408 35.9985H9.89862C8.79469 35.9985 7.89789 35.1017 7.89789 33.9978V22.024C7.89789 20.92 8.79469 20.0232 9.89862 20.0232H15.9408C17.0448 20.0232 17.9416 20.92 17.9416 22.024V33.9978C17.9416 35.1017 17.0471 35.9985 15.9408 35.9985Z" fill="#A5A0FF"/>
<path d="M38.9728 18.0225H8.89826C8.34511 18.0225 7.89789 17.5753 7.89789 17.0221V16.9986C7.89789 16.4455 8.34511 15.9982 8.89826 15.9982H38.9728C39.526 15.9982 39.9732 16.4455 39.9732 16.9986V17.0221C39.9732 17.5753 39.526 18.0225 38.9728 18.0225Z" fill="#A5A0FF"/>
<path d="M37.9725 35.9656H21.9148C20.8109 35.9656 19.9141 35.0688 19.9141 33.9648V21.9981C19.9141 20.8941 20.8109 19.9973 21.9148 19.9973H37.9725C39.0764 19.9973 39.9732 20.8941 39.9732 21.9981V33.9648C39.9732 35.0688 39.0788 35.9656 37.9725 35.9656Z" fill="#A5A0FF"/>
</svg>
