<svg width="48" height="48" viewBox="0 0 48 48" fill="none" xmlns="http://www.w3.org/2000/svg">
<path d="M31.985 4H16.015C13.7973 4 12 5.79728 12 8.01496V40.0779C12 42.2956 13.7973 44.0929 16.015 44.0929H31.985C34.2027 44.0929 36 42.2956 36 40.0779V8.01496C36 5.79728 34.2027 4 31.985 4Z" fill="#D0CEFF"/>
<path d="M19.0357 13.9713H16.9337C16.4118 13.9713 15.989 13.5485 15.989 13.0266V10.9246C15.989 10.4027 16.4118 9.97993 16.9337 9.97993H19.0357C19.5576 9.97993 19.9804 10.4027 19.9804 10.9246V13.0266C19.9804 13.5485 19.5576 13.9713 19.0357 13.9713Z" fill="#A5A0FF"/>
<path d="M25.051 13.9713H22.949C22.4271 13.9713 22.0043 13.5485 22.0043 13.0266V10.9246C22.0043 10.4027 22.4271 9.97993 22.949 9.97993H25.051C25.5729 9.97993 25.9957 10.4027 25.9957 10.9246V13.0266C25.9957 13.5485 25.5729 13.9713 25.051 13.9713Z" fill="#A5A0FF"/>
<path d="M31.0663 13.9713H28.9643C28.4424 13.9713 28.0197 13.5485 28.0197 13.0266V10.9246C28.0197 10.4027 28.4424 9.97993 28.9643 9.97993H31.0663C31.5882 9.97993 32.011 10.4027 32.011 10.9246V13.0266C32.011 13.5485 31.5882 13.9713 31.0663 13.9713Z" fill="#A5A0FF"/>
<path d="M19.0357 19.9748H16.9337C16.4118 19.9748 15.989 19.5521 15.989 19.0301V16.9282C15.989 16.4062 16.4118 15.9835 16.9337 15.9835H19.0357C19.5576 15.9835 19.9804 16.4062 19.9804 16.9282V19.0301C19.9804 19.5521 19.5576 19.9748 19.0357 19.9748Z" fill="#A5A0FF"/>
<path d="M25.051 19.9748H22.949C22.4271 19.9748 22.0043 19.5521 22.0043 19.0301V16.9282C22.0043 16.4062 22.4271 15.9835 22.949 15.9835H25.051C25.5729 15.9835 25.9957 16.4062 25.9957 16.9282V19.0301C25.9957 19.5521 25.5729 19.9748 25.051 19.9748Z" fill="#A5A0FF"/>
<path d="M31.0663 19.9748H28.9643C28.4424 19.9748 28.0197 19.5521 28.0197 19.0301V16.9282C28.0197 16.4062 28.4424 15.9835 28.9643 15.9835H31.0663C31.5882 15.9835 32.011 16.4062 32.011 16.9282V19.0301C32.011 19.5521 31.5882 19.9748 31.0663 19.9748Z" fill="#A5A0FF"/>
<path d="M19.0357 25.9807H16.9337C16.4118 25.9807 15.989 25.558 15.989 25.036V22.9341C15.989 22.4121 16.4118 21.9894 16.9337 21.9894H19.0357C19.5576 21.9894 19.9804 22.4121 19.9804 22.9341V25.036C19.9804 25.558 19.5576 25.9807 19.0357 25.9807Z" fill="#A5A0FF"/>
<path d="M25.051 25.9807H22.949C22.4271 25.9807 22.0043 25.558 22.0043 25.036V22.9341C22.0043 22.4121 22.4271 21.9894 22.949 21.9894H25.051C25.5729 21.9894 25.9957 22.4121 25.9957 22.9341V25.036C25.9957 25.558 25.5729 25.9807 25.051 25.9807Z" fill="#A5A0FF"/>
<path d="M24 40.0968C22.8971 40.0968 22.0043 39.2041 22.0043 38.1012C22.0043 36.9982 22.8971 36.1055 24 36.1055C25.1029 36.1055 25.9957 36.9982 25.9957 38.1012C25.9957 39.2017 25.1029 40.0968 24 40.0968Z" fill="#635DFF"/>
</svg>
