<svg width="48" height="48" viewBox="0 0 48 48" fill="none" xmlns="http://www.w3.org/2000/svg">
<path d="M4 36.0031V12.0021C4 9.79154 5.79154 8 8.00212 8H39.9979C42.2085 8 44 9.79154 44 12.0021V36.0031C44 38.2136 42.2085 40.0052 39.9979 40.0052H8.00212C5.79154 40.0052 4 38.2136 4 36.0031Z" fill="#D0CEFF"/>
<path d="M8.96737 13.1533C9.52385 13.1533 9.97496 12.7022 9.97496 12.1457C9.97496 11.5892 9.52385 11.1381 8.96737 11.1381C8.41089 11.1381 7.95978 11.5892 7.95978 12.1457C7.95978 12.7022 8.41089 13.1533 8.96737 13.1533Z" fill="#635DFF"/>
<path d="M12.2138 13.1533C12.7702 13.1533 13.2214 12.7022 13.2214 12.1457C13.2214 11.5892 12.7702 11.1381 12.2138 11.1381C11.6573 11.1381 11.2062 11.5892 11.2062 12.1457C11.2062 12.7022 11.6573 13.1533 12.2138 13.1533Z" fill="#635DFF"/>
<path d="M37.9827 16.049H9.95608C8.85196 16.049 7.95502 16.9459 7.95502 18.05V26.0072C7.95502 27.1113 8.85196 28.0082 9.95608 28.0082H37.985C39.0891 28.0082 39.9861 27.1113 39.9861 26.0072V18.05C39.9837 16.9436 39.0892 16.049 37.9827 16.049Z" fill="#A5A0FF"/>
<path d="M15.4555 13.1533C16.0119 13.1533 16.4631 12.7022 16.4631 12.1457C16.4631 11.5892 16.0119 11.1381 15.4555 11.1381C14.899 11.1381 14.4479 11.5892 14.4479 12.1457C14.4479 12.7022 14.899 13.1533 15.4555 13.1533Z" fill="#635DFF"/>
<path d="M15.9593 35.9913H9.90432C8.8002 35.9913 7.90326 35.0943 7.90326 33.9902V32.0457C7.90326 30.9416 8.8002 30.0446 9.90432 30.0446H15.9593C17.0634 30.0446 17.9603 30.9416 17.9603 32.0457V33.9902C17.9603 35.0943 17.0634 35.9913 15.9593 35.9913Z" fill="#A5A0FF"/>
<path d="M37.9309 35.9913H21.9483C20.8442 35.9913 19.9473 35.0943 19.9473 33.9902V32.0457C19.9473 30.9416 20.8442 30.0446 21.9483 30.0446H37.9309C39.035 30.0446 39.932 30.9416 39.932 32.0457V33.9902C39.932 35.0943 39.0374 35.9913 37.9309 35.9913Z" fill="#A5A0FF"/>
</svg>
