<svg width="48" height="48" viewBox="0 0 48 48" fill="none" xmlns="http://www.w3.org/2000/svg">
<path d="M34.5391 29.135L40.913 32.3184C42.4787 33.1001 42.4787 35.3346 40.913 36.1187L26.098 43.5144C24.8006 44.1619 23.2725 44.1619 21.9728 43.5144L7.17434 36.1187C5.60855 35.337 5.60855 33.1025 7.17434 32.3208L13.7059 29.1068" fill="#635DFF"/>
<path d="M34.5391 18.8597L40.913 22.0431C42.4787 22.8248 42.4787 25.0593 40.913 25.8433L26.098 33.239C24.8006 33.8865 23.2725 33.8865 21.9728 33.239L7.17434 25.8433C5.60855 25.0616 5.60855 22.8271 7.17434 22.0454L13.5034 18.8809" fill="#A5A0FF"/>
<path d="M21.9398 23.0579L7.3062 15.7446C5.68626 14.9346 5.68626 12.6224 7.3062 11.8125L21.9375 4.49446C23.2561 3.83518 24.8101 3.83518 26.131 4.49446L40.7788 11.8125C42.4011 12.6224 42.3987 14.937 40.7788 15.7446L26.131 23.0579C24.8101 23.7172 23.2584 23.7172 21.9398 23.0579Z" fill="#D0CEFF"/>
</svg>
