<svg width="48" height="48" viewBox="0 0 48 48" fill="none" xmlns="http://www.w3.org/2000/svg">
<path d="M4 32.0304V10.0123C4 7.79682 5.79682 6 8.01228 6H40.0541C42.2696 6 44.0664 7.79682 44.0664 10.0123V32.0304C44.0664 34.2459 42.2696 36.0427 40.0541 36.0427H8.01228C5.79682 36.0451 4 34.2483 4 32.0304Z" fill="#D0CEFF"/>
<path d="M24.0449 34.0977C24.6035 34.0977 25.0562 33.645 25.0562 33.0864C25.0562 32.5279 24.6035 32.0751 24.0449 32.0751C23.4864 32.0751 23.0336 32.5279 23.0336 33.0864C23.0336 33.645 23.4864 34.0977 24.0449 34.0977Z" fill="#635DFF"/>
<path d="M16.1521 30.0267H10.1149C9.01184 30.0267 8.11578 29.1306 8.11578 28.0276V16.0636C8.11578 14.9606 9.01184 14.0645 10.1149 14.0645H16.1521C17.2551 14.0645 18.1512 14.9606 18.1512 16.0636V28.0276C18.1512 29.1306 17.2551 30.0267 16.1521 30.0267Z" fill="#A5A0FF"/>
<path d="M39.1651 11.929H9.11533C8.56264 11.929 8.11578 11.4822 8.11578 10.9295V10.906C8.11578 10.3533 8.56264 9.90644 9.11533 9.90644H39.1651C39.7178 9.90644 40.1646 10.3533 40.1646 10.906V10.9295C40.1646 11.4822 39.7178 11.929 39.1651 11.929Z" fill="#A5A0FF"/>
<path d="M38.1655 29.9937H22.1211C21.0181 29.9937 20.122 29.0977 20.122 27.9946V16.0378C20.122 14.9347 21.0181 14.0387 22.1211 14.0387H38.1655C39.2685 14.0387 40.1646 14.9347 40.1646 16.0378V27.9946C40.1646 29.1 39.2709 29.9937 38.1655 29.9937Z" fill="#A5A0FF"/>
<path d="M31.0464 44.0029H16.9776C15.8722 44.0029 14.9761 43.1068 14.9761 42.0014C14.9761 40.8961 15.8722 40 16.9776 40H31.0464C32.1518 40 33.0479 40.8961 33.0479 42.0014C33.0479 43.1068 32.1518 44.0029 31.0464 44.0029Z" fill="#D0CEFF"/>
</svg>
