<svg width="48" height="48" viewBox="0 0 48 48" fill="none" xmlns="http://www.w3.org/2000/svg">
<path d="M14.1971 4H6.00723C4.8971 4 4 4.89947 4 6.00723C4 7.115 4.8971 8.01446 6.00723 8.01446H14.1971C15.3049 8.01446 16.2044 7.11736 16.2044 6.00723C16.2044 4.89947 15.3049 4 14.1971 4Z" fill="#635DFF"/>
<path d="M23.0145 28.1971V20.0072C23.0145 18.8995 22.1174 18 21.0072 18C19.8995 18 19 18.8971 19 20.0072V28.1971C19 29.3049 19.8971 30.2044 21.0072 30.2044C22.115 30.202 23.0145 29.3049 23.0145 28.1971Z" fill="#635DFF"/>
<path d="M22.136 28.0062H16.7297C10.8145 28.0062 6 23.194 6 17.2765V6H14.0692V17.2765C14.0692 18.7559 15.3592 19.9583 16.8386 19.9583H22.1383V28.0062H22.136Z" fill="#635DFF"/>
<path d="M27 19.9915L31.5 19.9915C37.4152 19.9915 42.2297 24.8036 42.2297 30.7212V41.9976H34.1606V30.7212C34.1606 29.2418 32.8705 28.0393 31.3911 28.0393H27V19.9915Z" fill="#D0CEFF"/>
<path d="M34.08 44.0145H42.2699C43.3777 44.0145 44.2772 43.1174 44.2772 42.0072C44.2772 40.8995 43.3801 40 42.2699 40H34.08C32.9723 40 32.0728 40.8971 32.0728 42.0072C32.0752 43.1174 32.9723 44.0145 34.08 44.0145Z" fill="#D0CEFF"/>
</svg>
