<svg width="48" height="48" viewBox="0 0 48 48" fill="none" xmlns="http://www.w3.org/2000/svg">
<path d="M28.0005 37.984H20.0019V37.9675V42.0127C20.0019 43.11 19.1118 44 18.0146 44C16.9174 44 16.0273 43.11 16.0273 42.0127V37.9675V37.984H13.9717C11.7867 37.984 10.0137 36.2133 10.0137 34.0259V31.9774H10.0372H5.98728C4.89004 31.9774 4 31.0874 4 29.9901C4 28.8929 4.89004 28.0028 5.98728 28.0028H10.0325H10.0089V20.0019H10.0325H5.98728C4.89004 20.0019 4 19.1118 4 18.0122C4 16.915 4.89004 16.025 5.98728 16.025H10.0325H10.0089V13.9765C10.0089 11.7914 11.7796 10.0184 13.967 10.0184H16.0226V10.0348V5.98728C16.0226 4.89004 16.9126 4 18.0099 4C19.1071 4 19.9972 4.89004 19.9972 5.98728V10.0325V10.016H27.9958V10.0325V5.98728C27.9958 4.89004 28.8858 4 29.983 4C31.0803 4 31.9703 4.89004 31.9703 5.98728V10.0325V10.016H34.0188C36.2039 10.016 37.9769 11.7867 37.9769 13.9741V16.0226H37.9628H42.008C43.1052 16.0226 43.9953 16.9126 43.9953 18.0099C43.9953 19.1071 43.1052 19.9972 42.008 19.9972H37.9628H37.9769V27.9958H37.9628H42.008C43.1052 27.9958 43.9953 28.8858 43.9953 29.983C43.9953 31.0803 43.1052 31.9703 42.008 31.9703H37.9628H37.9769V34.0188C37.9769 36.2039 36.2063 37.9769 34.0188 37.9769H31.9703V37.9604V42.0056C31.9703 43.1029 31.0803 43.9929 29.983 43.9929C28.8858 43.9929 27.9958 43.1029 27.9958 42.0056V37.9604" fill="#D0CEFF"/>
<path d="M19.0083 16.0108H28.9871C30.6447 16.0108 31.9892 17.3553 31.9892 19.013V28.9871C31.9892 30.6447 30.6447 31.9892 28.9871 31.9892H19.0083C17.3506 31.9892 16.0062 30.6447 16.0062 28.9871V19.013C16.0062 17.3553 17.3506 16.0108 19.0083 16.0108Z" fill="#635DFF"/>
</svg>
