<svg width="48" height="48" viewBox="0 0 48 48" fill="none" xmlns="http://www.w3.org/2000/svg">
<path d="M6.00001 19.9138C6.00001 18.7378 6.59063 17.6404 7.57217 16.9926L22.0722 7.42339C23.2416 6.65167 24.7585 6.65167 25.9279 7.42339L40.4279 16.9926C41.4094 17.6404 42 18.7378 42 19.9138L42 38.5001C42 40.4331 40.433 42 38.5 42H9.5C7.567 42 6 40.433 6 38.5L6.00001 19.9138Z" fill="#D0CEFF"/>
<path d="M42 20.0301L6 20.0301L21.8418 32.4389C23.1093 33.4317 24.8907 33.4317 26.1582 32.4389L42 20.0301Z" fill="#A5A0FF"/>
<path fill-rule="evenodd" clip-rule="evenodd" d="M7.57216 17.0144C6.59062 17.6621 6 18.7595 6 19.9356V20.0302H42V19.9356C42 18.7595 41.4094 17.6621 40.4278 17.0144L25.9278 7.44513C24.7585 6.6734 23.2415 6.6734 22.0722 7.44513L7.57216 17.0144Z" fill="#A5A0FF"/>
<rect x="12" y="16.0302" width="24" height="12" rx="1.5" fill="#635DFF"/>
<circle cx="16.7775" cy="22.0302" r="1.27821" fill="white"/>
<circle cx="21.5925" cy="22.0302" r="1.27821" fill="white"/>
<circle cx="26.4075" cy="22.0302" r="1.27821" fill="white"/>
<circle cx="31.2226" cy="22.0302" r="1.27821" fill="white"/>
</svg>
