<svg width="48" height="48" viewBox="0 0 48 48" fill="none" xmlns="http://www.w3.org/2000/svg">
<path d="M24 44.3807C33.9411 44.3807 42 42.118 42 39.3267C42 36.5354 33.9411 34.2727 24 34.2727C14.0589 34.2727 6 36.5354 6 39.3267C6 42.118 14.0589 44.3807 24 44.3807Z" fill="#A5A0FF"/>
<path d="M41.9973 26.2665H6V39.34H41.9973V26.2665Z" fill="#A5A0FF"/>
<path d="M24 31.2275C33.9411 31.2275 42 28.9647 42 26.1735C42 23.3822 33.9411 21.1194 24 21.1194C14.0589 21.1194 6 23.3822 6 26.1735C6 28.9647 14.0589 31.2275 24 31.2275Z" fill="#D0CEFF"/>
<path d="M24 26.9663C33.9411 26.9663 42 24.7036 42 21.9123C42 19.121 33.9411 16.8583 24 16.8583C14.0589 16.8583 6 19.121 6 21.9123C6 24.7036 14.0589 26.9663 24 26.9663Z" fill="#A5A0FF"/>
<path d="M41.9973 9.14969H6V21.9256H41.9973V9.14969Z" fill="#A5A0FF"/>
<path d="M24 14.1081C33.9411 14.1081 42 11.8453 42 9.05403C42 6.26277 33.9411 4 24 4C14.0589 4 6 6.26277 6 9.05403C6 11.8453 14.0589 14.1081 24 14.1081Z" fill="#D0CEFF"/>
<path d="M10.0219 19.3144C10.6178 19.243 11.0276 18.5732 10.9371 17.8184C10.8467 17.0636 10.2902 16.5096 9.69426 16.5811C9.0983 16.6525 8.68851 17.3223 8.77897 18.0771C8.86943 18.8319 9.42589 19.3858 10.0219 19.3144Z" fill="#635DFF"/>
<path d="M10.0217 36.6518C10.6177 36.5804 11.0275 35.9106 10.937 35.1558C10.8465 34.4011 10.2901 33.8471 9.69411 33.9185C9.09814 33.9899 8.68835 34.6597 8.77882 35.4145C8.86928 36.1693 9.42574 36.7233 10.0217 36.6518Z" fill="#635DFF"/>
</svg>
