<svg width="48" height="48" viewBox="0 0 48 48" fill="none" xmlns="http://www.w3.org/2000/svg">
<path d="M18.3783 11.5693H5.33982C4.60026 11.5693 4 10.969 4 10.2295C4 9.48991 4.60026 8.88965 5.33982 8.88965H18.3783C19.1179 8.88965 19.7182 9.48991 19.7182 10.2295C19.7182 10.969 19.1179 11.5693 18.3783 11.5693Z" fill="#A5A0FF"/>
<path d="M18.3783 16.4575H5.33982C4.60026 16.4575 4 15.8572 4 15.1176C4 14.3781 4.60026 13.7778 5.33982 13.7778H18.3783C19.1179 13.7778 19.7182 14.3781 19.7182 15.1176C19.7182 15.8572 19.1179 16.4575 18.3783 16.4575Z" fill="#A5A0FF"/>
<path d="M8.60201 21.3482C8.55135 21.3482 8.50323 21.3457 8.45258 21.3406C7.71808 21.2596 7.18874 20.596 7.26979 19.8615L8.89834 5.1919C8.97939 4.4574 9.64296 3.923 10.3775 4.00911C11.1119 4.09016 11.6413 4.75373 11.5602 5.48823L9.92916 20.1578C9.85318 20.8417 9.27318 21.3482 8.60201 21.3482Z" fill="#A5A0FF"/>
<path d="M13.4902 21.3482C13.4395 21.3482 13.3914 21.3457 13.3408 21.3406C12.6063 21.2596 12.0769 20.596 12.158 19.8615L13.7891 5.1919C13.8701 4.4574 14.5413 3.923 15.2682 4.00911C16.0027 4.09016 16.532 4.75373 16.451 5.48823L14.8199 20.1578C14.7439 20.8417 14.1639 21.3482 13.4902 21.3482Z" fill="#A5A0FF"/>
<path d="M17.5066 43.6915L11.8181 39.6265L6.1296 43.6915C5.65598 44.0284 5 43.6915 5 43.1115V28.523C5 27.4466 5.87126 26.5753 6.94767 26.5753H16.6886C17.765 26.5753 18.6362 27.4466 18.6362 28.523V43.1115C18.6362 43.6915 17.9803 44.0309 17.5066 43.6915Z" fill="#635DFF"/>
<path d="M42.5402 5.45696C40.595 3.51435 37.4443 3.51435 35.4992 5.45696L34.5393 6.41686L33.6731 5.55067C31.7608 3.63592 28.638 3.48902 26.6625 5.33792C24.5957 7.27039 24.5552 10.5123 26.5409 12.498L27.5008 13.4579L34.1669 20.124C34.3746 20.3317 34.7115 20.3317 34.9192 20.124L41.5853 13.4579L42.5478 12.4954C44.4853 10.5528 44.4853 7.4021 42.5402 5.45696Z" fill="#635DFF"/>
<path d="M36.4363 30.9012V27.1655C36.4363 25.618 35.1826 24.3617 33.6326 24.3617L29.8968 32.7704V43.7093H40.6837C41.6158 43.7194 42.4136 43.0432 42.5529 42.1213L43.842 33.049C43.9965 32.0283 43.295 31.076 42.2743 30.9215C42.1755 30.9063 42.0742 30.8987 41.9729 30.9012H36.4363Z" fill="#D0CEFF"/>
<path d="M29.8968 43.7093H26.4092C25.3784 43.7093 24.54 42.8735 24.54 41.8401V34.637C24.54 33.6062 25.3758 32.7679 26.4092 32.7679H29.8968" fill="#A5A0FF"/>
</svg>
