<svg width="48" height="48" viewBox="0 0 48 48" fill="none" xmlns="http://www.w3.org/2000/svg">
<path d="M8.94043 15.0567C8.94043 10.6082 12.5487 7 16.9971 7C21.448 7 25.0538 10.6082 25.0538 15.0567C25.0538 19.5052 21.4456 23.1134 16.9971 23.1134C12.5487 23.1134 8.94043 19.5076 8.94043 15.0567Z" fill="#635DFF"/>
<path d="M6.55376 28.5538C8.18958 26.9179 10.4068 26 12.7205 26H21.2738C23.5875 26 25.8047 26.9179 27.4405 28.5538C29.0763 30.1896 29.9942 32.4068 29.9942 34.7205V36.4575C29.9942 38.3875 28.429 39.9527 26.499 39.9527H7.49524C5.56521 39.9527 4 38.3875 4 36.4575V34.7205C4 32.4091 4.91794 30.1896 6.55376 28.5538Z" fill="#D0CEFF"/>
<path d="M43.7375 20.2549C43.3656 19.6147 42.6854 19.264 41.9934 19.2829C41.9934 19.2805 41.9911 19.2782 41.9911 19.2758C41.4709 19.2805 40.9648 19.0169 40.6871 18.5344C40.4047 18.0472 40.4306 17.4658 40.7036 17.0162C40.7012 17.0139 40.6989 17.0115 40.6965 17.0092C40.7106 16.988 40.7271 16.9668 40.7389 16.9433C41.2802 16.0136 40.9672 14.8202 40.0351 14.2765C39.1054 13.7352 37.9121 14.0482 37.3684 14.9803C37.3543 15.0038 37.3425 15.0297 37.3307 15.0533C37.3284 15.0533 37.326 15.0533 37.3213 15.0509C37.1942 15.2769 37.0106 15.4722 36.7706 15.6111C36.0597 16.023 35.1489 15.7806 34.737 15.0697C34.7323 15.0627 34.7299 15.0556 34.7252 15.0462C34.7205 15.0462 34.7158 15.0486 34.7134 15.0486C34.6993 15.0227 34.6899 14.9991 34.6758 14.9732C34.1368 14.0412 32.9434 13.7234 32.0114 14.2624C31.1052 14.7873 30.7827 15.9312 31.2629 16.8515C31.2841 16.8821 31.3029 16.9103 31.3217 16.9409C31.7336 17.6517 31.4912 18.5626 30.7804 18.9745C30.5568 19.104 30.3144 19.1675 30.0743 19.1746V19.1769C30.0484 19.1746 30.0225 19.1722 29.9943 19.1722C28.9186 19.1628 28.036 20.0266 28.0266 21.1023C28.0172 22.1779 28.881 23.0605 29.9566 23.07C29.9825 23.07 30.0084 23.0676 30.0343 23.0676V23.07C30.5568 23.0605 31.0699 23.3265 31.3523 23.8114C31.6371 24.3057 31.6089 24.8941 31.3265 25.346L31.3288 25.3483C31.3147 25.3695 31.3006 25.3907 31.2864 25.4119C30.7451 26.3416 31.0581 27.5349 31.9902 28.0786C32.9199 28.62 34.1132 28.3069 34.6569 27.3749C34.6687 27.3537 34.6781 27.3325 34.6899 27.3113H34.6922C34.8193 27.0783 35.0076 26.8735 35.2548 26.73C35.9656 26.3181 36.8765 26.5605 37.2884 27.2713C37.2978 27.2854 37.3048 27.3019 37.3119 27.316C37.3143 27.316 37.3166 27.316 37.3166 27.316C37.6414 27.9256 38.2793 28.3422 39.0183 28.3493C40.094 28.3587 40.9766 27.4949 40.986 26.4193C40.9907 26.0333 40.8801 25.6732 40.6895 25.3695L40.6918 25.3672C40.3152 24.6634 40.56 23.7831 41.2567 23.3806C41.4803 23.2512 41.7251 23.1876 41.9652 23.1806C41.9652 23.1782 41.9652 23.1782 41.9675 23.1759C42.3276 23.1924 42.6948 23.11 43.029 22.917C43.9588 22.378 44.2765 21.187 43.7375 20.2549ZM37.7544 22.1873C37.1966 23.1429 35.9703 23.4677 35.0123 22.9099C34.0567 22.3521 33.7319 21.1258 34.2898 20.1679C34.8476 19.2122 36.0739 18.8874 37.0318 19.4453C37.9874 20.0031 38.3122 21.2317 37.7544 22.1873Z" fill="#A5A0FF"/>
</svg>
