<svg width="48" height="48" viewBox="0 0 48 48" fill="none" xmlns="http://www.w3.org/2000/svg">
<path d="M33.3159 2H14.6841C12.0968 2 10 3.9766 10 6.41552V41.6774C10 44.1163 12.0968 46.0929 14.6841 46.0929H33.3159C35.9032 46.0929 38 44.1163 38 41.6774V6.41552C38 3.9766 35.9032 2 33.3159 2Z" fill="#D0CEFF"/>
<rect x="18.1169" y="10.1874" width="22.6473" height="19.6314" rx="1.5" fill="#635DFF"/>
<path d="M18.112 34.1435V26.45C18.112 26.0634 18.4254 25.75 18.812 25.75H26.5055C27.1291 25.75 27.4415 26.504 27.0005 26.945L19.307 34.6384C18.866 35.0794 18.112 34.7671 18.112 34.1435Z" fill="#635DFF"/>
<path d="M24.0001 42C22.8971 42 22.0044 41.1073 22.0044 40.0043C22.0044 38.9014 22.8971 38.0087 24.0001 38.0087C25.103 38.0087 25.9957 38.9014 25.9957 40.0043C25.9957 41.1049 25.103 42 24.0001 42Z" fill="#635DFF"/>
<path d="M26.2673 23.7336L29.4399 26.0407L32.614 23.7336L29.4399 21.4278L26.2673 23.7336ZM24.3055 17.6959C23.5645 19.9778 24.4244 22.3954 26.2659 23.7336V23.7322L27.4782 20.0016L24.3055 17.6959L28.2276 17.6973L29.4399 13.9667V13.9653H25.5178L24.3055 17.6959ZM34.5785 17.6959L33.3648 13.9653H29.4413V13.9667L30.6536 17.6973H34.5757L31.4031 20.0016L32.6154 23.7322C34.5562 22.3227 35.2819 19.8604 34.5785 17.6959Z" fill="white"/>
</svg>
