<svg width="48" height="48" viewBox="0 0 48 48" fill="none" xmlns="http://www.w3.org/2000/svg">
<path d="M6.0092 8H41.9908C44.2053 8 46 9.79471 46 12.0092V36.0384C46 38.2529 44.2053 40.0476 41.9908 40.0476H6.0092C3.79471 40.0476 2 38.2529 2 36.0384V12.0092C2 9.79471 3.79471 8 6.0092 8Z" fill="#D0CEFF"/>
<path d="M19.5014 32.067C18.5958 32.9726 17.3483 33.5362 15.971 33.5457H15.9026C14.5442 33.5221 13.2872 32.9749 12.3509 32.0057C11.4147 31.0364 10.9123 29.7605 10.9359 28.4139C10.9784 26.0178 12.6575 24.0462 14.9145 23.5675V20.1691V15.1977C14.9145 15.1953 14.9145 15.1906 14.9145 15.1883V14.4407C14.9145 13.8912 15.3602 13.4478 15.9097 13.4454C16.4592 13.4454 16.9049 13.8912 16.9049 14.4407V15.7661H19.0345C19.584 15.7661 20.0297 16.2118 20.0297 16.7613V19.9333C20.0297 20.4828 19.584 20.9261 19.0345 20.9285H16.9049V23.5486C19.2114 23.9991 20.966 26.0272 20.9825 28.4658C20.9919 29.869 20.4236 31.1449 19.5014 32.067ZM14.2966 26.822C13.8768 27.2418 13.615 27.8172 13.6056 28.4611C13.582 29.7676 14.6267 30.8501 15.9356 30.8737H15.9592C17.2681 30.8642 18.3223 29.7935 18.3152 28.487C18.3105 27.8526 18.0605 27.2607 17.61 26.8149C17.1667 26.3763 16.5818 26.1357 15.9592 26.131C15.9521 26.131 15.9451 26.131 15.9356 26.131C15.2918 26.1404 14.714 26.4022 14.2966 26.822Z" fill="#635DFF"/>
<path d="M26.0671 27.0248C26.0671 25.9801 26.9137 25.1311 27.9608 25.1311H34.4675C35.5123 25.1311 36.3613 25.9777 36.3613 27.0248C36.3613 28.0696 35.5146 28.9186 34.4675 28.9186H27.9608C26.9137 28.9162 26.0671 28.0696 26.0671 27.0248Z" fill="#A5A0FF"/>
<path d="M26.0671 20.9709C26.0671 19.9262 26.9137 19.0772 27.9608 19.0772H36.2221C37.2669 19.0772 38.1159 19.9238 38.1159 20.9709C38.1159 22.0157 37.2692 22.8647 36.2221 22.8647H27.9608C26.9137 22.8647 26.0671 22.0157 26.0671 20.9709Z" fill="#A5A0FF"/>
</svg>
