<svg width="48" height="48" viewBox="0 0 48 48" fill="none" xmlns="http://www.w3.org/2000/svg">
<path d="M13.4514 22.0502C12.675 21.2739 11.4158 21.2739 10.6394 22.0502L8.70321 23.9864C4.50887 28.2044 4.51834 35.0214 8.72451 39.23C12.9354 43.4172 19.7358 43.4172 23.9467 39.23L25.8829 37.2937C26.6593 36.5174 26.6593 35.2581 25.8829 34.4817L13.4514 22.0502Z" fill="#D0CEFF"/>
<path d="M10.9329 39.2773L6.67943 43.5308C6.06638 44.1438 5.07223 44.1438 4.45918 43.5308C3.84613 42.9177 3.84613 41.9236 4.45918 41.3105L8.71269 37.057L10.9329 39.2773Z" fill="#D0CEFF"/>
<path d="M22.0602 13.4415C21.2839 12.6651 21.2839 11.4058 22.0602 10.6294L23.9965 8.69324C28.2145 4.49891 35.0314 4.50838 39.24 8.71454C43.4272 12.9254 43.4272 19.7258 39.24 23.9367L37.3038 25.873C36.5274 26.6493 35.2681 26.6493 34.4918 25.873L22.0602 13.4415Z" fill="#635DFF"/>
<path d="M25.9611 15.4865L21.7076 19.74C21.0945 20.3531 20.1004 20.3531 19.4873 19.74C18.8743 19.127 18.8743 18.1328 19.4873 17.5198L23.7408 13.2663L25.9611 15.4865Z" fill="#635DFF"/>
<path d="M39.2873 10.923L43.5408 6.66945C44.1539 6.0564 44.1539 5.06225 43.5408 4.4492C42.9278 3.83615 41.9336 3.83615 41.3206 4.4492L37.0671 8.70271L39.2873 10.923Z" fill="#635DFF"/>
<path d="M34.629 24.1569L30.3755 28.4104C29.7624 29.0234 28.7683 29.0234 28.1552 28.4104C27.5422 27.7973 27.5422 26.8032 28.1552 26.1901L32.4087 21.9366L34.629 24.1569Z" fill="#635DFF"/>
</svg>
