<svg width="48" height="48" viewBox="0 0 48 48" fill="none" xmlns="http://www.w3.org/2000/svg">
<path d="M8.0092 8H39.9908C42.2053 8 44 9.79471 44 12.0092V36.1469C44 38.3614 42.2053 40.1561 39.9908 40.1561H8.0092C5.79471 40.1561 4 38.3614 4 36.1469V12.0092C4 9.79471 5.79471 8 8.0092 8Z" fill="#635DFF"/>
<path d="M12.1033 29.3572C11.7118 29.3572 11.318 29.2087 11.0185 28.9091C10.4195 28.3101 10.4195 27.3408 11.0185 26.7418L15.9168 21.8435L11.0208 16.9476C10.4218 16.3486 10.4218 15.3793 11.0208 14.7803C11.6199 14.1812 12.5915 14.1812 13.1882 14.7803L19.1689 20.761C19.4567 21.0488 19.617 21.4379 19.617 21.8459C19.617 22.2539 19.4567 22.643 19.1689 22.9307L13.1882 28.9091C12.8887 29.2087 12.4972 29.3572 12.1033 29.3572Z" fill="#D0CEFF"/>
<path d="M27.6896 33.8192H18.3883C17.5416 33.8192 16.8553 33.1329 16.8553 32.2863C16.8553 31.4397 17.5416 30.7534 18.3883 30.7534H27.6896C28.5363 30.7534 29.2225 31.4397 29.2225 32.2863C29.2225 33.1329 28.5363 33.8192 27.6896 33.8192Z" fill="#D0CEFF"/>
</svg>
