<svg width="48" height="48" viewBox="0 0 48 48" fill="none" xmlns="http://www.w3.org/2000/svg">
<path d="M4 35.9985V12.0015C4 9.79125 5.79125 8 8.00147 8H39.9921C42.2023 8 43.9935 9.79125 43.9935 12.0015V35.9985C43.9935 38.2088 42.2023 40 39.9921 40H8.00147C5.79125 40 4 38.2088 4 35.9985Z" fill="#D0CEFF"/>
<path d="M8.96814 13.027C9.52471 13.027 9.9759 12.5758 9.9759 12.0192C9.9759 11.4627 9.52471 11.0115 8.96814 11.0115C8.41158 11.0115 7.96039 11.4627 7.96039 12.0192C7.96039 12.5758 8.41158 13.027 8.96814 13.027Z" fill="#635DFF"/>
<path d="M12.2128 13.026C12.7693 13.026 13.2205 12.5748 13.2205 12.0183C13.2205 11.4617 12.7693 11.0105 12.2128 11.0105C11.6562 11.0105 11.205 11.4617 11.205 12.0183C11.205 12.5748 11.6562 13.026 12.2128 13.026Z" fill="#635DFF"/>
<path d="M15.4539 13.026C16.0105 13.026 16.4617 12.5748 16.4617 12.0183C16.4617 11.4617 16.0105 11.0105 15.4539 11.0105C14.8974 11.0105 14.4462 11.4617 14.4462 12.0183C14.4462 12.5748 14.8974 13.026 15.4539 13.026Z" fill="#635DFF"/>
<path d="M34.0746 30.9755C33.8086 30.9755 33.5426 30.8743 33.3402 30.6719C32.933 30.2647 32.933 29.6079 33.3402 29.2007L36.6638 25.8772L33.3402 22.5536C32.933 22.1464 32.933 21.4897 33.3402 21.0825C33.7474 20.6776 34.4041 20.6776 34.8113 21.0825L38.8693 25.1404C39.2765 25.5476 39.2765 26.2043 38.8693 26.6115L34.8113 30.6719C34.6065 30.8743 34.3406 30.9755 34.0746 30.9755Z" fill="#A5A0FF"/>
<path d="M14.0343 30.9755C13.7683 30.9755 13.5024 30.8743 13.2999 30.6719L9.23961 26.6139C8.8324 26.2067 8.8324 25.55 9.23961 25.1428L13.2976 21.0848C13.7048 20.68 14.3615 20.68 14.7687 21.0848C15.1759 21.492 15.1759 22.1487 14.7687 22.5559L11.4475 25.8772L14.7711 29.2007C15.1783 29.6079 15.1783 30.2647 14.7711 30.6719C14.5663 30.8743 14.3003 30.9755 14.0343 30.9755Z" fill="#A5A0FF"/>
<path d="M27.9571 27.5484C27.8841 27.7108 27.8629 27.892 27.8959 28.0662C27.9288 28.2404 28.0112 28.4028 28.136 28.5299L28.1689 28.5629C28.2701 28.6641 28.3502 28.7818 28.4043 28.9136C28.4584 29.0454 28.4867 29.1843 28.4867 29.3278C28.4867 29.4691 28.4584 29.6103 28.4043 29.7421C28.3502 29.8739 28.2701 29.9916 28.1689 30.0928C28.0677 30.194 27.95 30.2717 27.8182 30.3282C27.6864 30.3823 27.5475 30.4106 27.4039 30.4106C27.2627 30.4106 27.1215 30.3823 26.9897 30.3282C26.8578 30.2741 26.7402 30.194 26.6389 30.0928L26.606 30.0599C26.4789 29.9351 26.3165 29.8527 26.1423 29.8198C25.9681 29.7868 25.7869 29.8104 25.6245 29.881C25.4644 29.9492 25.3279 30.0622 25.2337 30.2082C25.1372 30.3541 25.0854 30.5236 25.0854 30.6978V30.7896C25.0854 31.0767 24.9724 31.3498 24.77 31.5522C24.5676 31.7546 24.2922 31.8676 24.0074 31.8676C23.7202 31.8676 23.4472 31.7546 23.2448 31.5522C23.0423 31.3498 22.9293 31.0744 22.9293 30.7896V30.7401C22.9246 30.5612 22.8681 30.3871 22.7622 30.2435C22.6587 30.0975 22.5127 29.9869 22.3456 29.9257C22.1832 29.8527 22.0019 29.8316 21.8278 29.8645C21.6536 29.8975 21.4912 29.9798 21.3641 30.1046L21.3311 30.1376C21.2299 30.2388 21.1122 30.3188 20.9804 30.3729C20.8486 30.4271 20.7097 30.4553 20.5661 30.4553C20.4249 30.4553 20.2837 30.4271 20.1519 30.3729C20.02 30.3188 19.9024 30.2388 19.8011 30.1376C19.6999 30.0363 19.6199 29.9186 19.5658 29.7868C19.5116 29.655 19.4834 29.5161 19.4834 29.3726C19.4834 29.2313 19.5116 29.0901 19.5658 28.9583C19.6199 28.8265 19.6999 28.7088 19.8011 28.6076L19.8341 28.5746C19.9588 28.4475 20.0412 28.2851 20.0742 28.1109C20.1048 27.9367 20.0836 27.7555 20.013 27.5931C19.9447 27.433 19.8317 27.2965 19.6858 27.2024C19.5399 27.1058 19.3704 27.0541 19.1962 27.0541H19.1044C18.8172 27.0541 18.5442 26.9411 18.3418 26.7387C18.1393 26.5362 18.0264 26.2608 18.0264 25.976C18.0264 25.6889 18.1393 25.4158 18.3418 25.2134C18.5442 25.011 18.8196 24.898 19.1044 24.898H19.1538C19.3327 24.8933 19.5069 24.8368 19.6505 24.7309C19.7964 24.6273 19.9071 24.4814 19.9683 24.3142C20.0412 24.1518 20.0624 23.9706 20.0295 23.7964C19.9989 23.6222 19.9141 23.4598 19.7894 23.3327L19.7564 23.2997C19.6552 23.1985 19.5752 23.0808 19.521 22.949C19.4669 22.8172 19.4387 22.6783 19.4387 22.5348C19.4387 22.3935 19.4669 22.2523 19.521 22.1205C19.5752 21.9887 19.6552 21.871 19.7564 21.7698C19.8576 21.6686 19.9753 21.5885 20.1071 21.5344C20.2389 21.4803 20.3778 21.452 20.5214 21.452C20.6626 21.452 20.8039 21.4803 20.9357 21.5344C21.0675 21.5885 21.1852 21.6686 21.2864 21.7698L21.3193 21.8027C21.4464 21.9275 21.6089 22.0099 21.783 22.0428C21.9572 22.0734 22.1385 22.0522 22.3009 21.9816H22.3432C22.5033 21.9134 22.6398 21.8004 22.734 21.6544C22.8305 21.5085 22.8823 21.339 22.8823 21.1648V21.073C22.8823 20.7859 22.9953 20.5128 23.1977 20.3104C23.4001 20.108 23.6755 19.995 23.9603 19.995C24.2475 19.995 24.5205 20.108 24.7229 20.3104C24.9254 20.5128 25.0384 20.7882 25.0384 21.073V21.1225C25.0384 21.2967 25.0901 21.4661 25.1866 21.6121C25.2832 21.758 25.4197 21.871 25.5774 21.9392C25.7398 22.0122 25.921 22.0334 26.0952 22.0004C26.2694 21.9698 26.4318 21.8851 26.5589 21.7604L26.5966 21.7227C26.6978 21.6215 26.8155 21.5414 26.9473 21.4873C27.0791 21.4332 27.218 21.4049 27.3616 21.4049C27.5028 21.4049 27.644 21.4332 27.7758 21.4873C27.9076 21.5414 28.0253 21.6215 28.1266 21.7227C28.2278 21.8239 28.3054 21.9416 28.3619 22.0734C28.4161 22.2052 28.4443 22.3441 28.4443 22.4877C28.4443 22.6289 28.4161 22.7701 28.3619 22.902C28.3078 23.0338 28.2278 23.1515 28.1266 23.2527L28.0936 23.2856C27.9688 23.4127 27.8865 23.5751 27.8535 23.7493C27.8206 23.9235 27.8441 24.1047 27.9147 24.2672V24.3095C27.983 24.4696 28.096 24.6061 28.2419 24.7003C28.3878 24.7944 28.5573 24.8485 28.7315 24.8485H28.8233C29.1104 24.8485 29.3835 24.9615 29.5859 25.164C29.7883 25.3664 29.9013 25.6418 29.9013 25.9266C29.9013 26.2138 29.7883 26.4868 29.5859 26.6892C29.3835 26.8917 29.1081 27.0046 28.8233 27.0046H28.7738C28.5997 27.0046 28.4302 27.0564 28.2866 27.1529C28.1407 27.2541 28.0277 27.3907 27.9571 27.5484Z" fill="#635DFF"/>
<path d="M23.9646 27.7792C24.9854 27.7792 25.8129 26.9517 25.8129 25.9309C25.8129 24.9101 24.9854 24.0825 23.9646 24.0825C22.9438 24.0825 22.1163 24.9101 22.1163 25.9309C22.1163 26.9517 22.9438 27.7792 23.9646 27.7792Z" fill="#D0CEFF"/>
</svg>
