<svg width="48" height="48" viewBox="0 0 48 48" fill="none" xmlns="http://www.w3.org/2000/svg">
<path d="M20.4696 5.20921L6.49189 15.7629C4.37739 17.3588 3.49733 20.1703 4.30699 22.7377L9.64368 39.6771C10.4557 42.254 12.7861 44 15.4169 44H32.6966C35.3274 44 37.6578 42.254 38.4698 39.6771L43.8065 22.7377C44.6162 20.1703 43.7338 17.3564 41.6216 15.7606L27.6439 5.20921C25.5083 3.59693 22.6052 3.59693 20.4696 5.20921Z" fill="#D0CEFF"/>
<path d="M19.0779 21.048C19.0779 18.2811 21.3192 16.0398 24.0861 16.0398C26.853 16.0398 29.0942 18.2811 29.0942 21.048C29.0942 23.8149 26.853 26.0561 24.0861 26.0561C21.3192 26.0561 19.0779 23.8149 19.0779 21.048Z" fill="#635DFF"/>
<path d="M15.5131 29.5318C16.4518 28.593 17.7238 28.0674 19.0521 28.0674H29.0942C30.4202 28.0674 31.6945 28.5954 32.6332 29.5318C33.572 30.4705 34.0977 31.7425 34.0977 33.0708V34.0752C34.0977 35.1783 33.2035 36.0724 32.1005 36.0724H16.0599C14.9475 36.0724 14.0463 35.1712 14.0463 34.0588V33.0708C14.0487 31.7448 14.5744 30.4705 15.5131 29.5318Z" fill="#A5A0FF"/>
</svg>
