<svg width="48" height="48" viewBox="0 0 48 48" fill="none" xmlns="http://www.w3.org/2000/svg">
<path d="M33.3159 2H14.6841C12.0968 2 10 3.9766 10 6.41552V41.6774C10 44.1163 12.0968 46.0929 14.6841 46.0929H33.3159C35.9032 46.0929 38 44.1163 38 41.6774V6.41552C38 3.9766 35.9032 2 33.3159 2Z" fill="#D0CEFF"/>
<path d="M24.0001 42C22.8971 42 22.0044 41.1073 22.0044 40.0043C22.0044 38.9014 22.8971 38.0087 24.0001 38.0087C25.103 38.0087 25.9957 38.9014 25.9957 40.0043C25.9957 41.1049 25.103 42 24.0001 42Z" fill="#635DFF"/>
<path fill-rule="evenodd" clip-rule="evenodd" d="M27.1604 12.2532C26.7334 12.2532 26.3858 12.6008 26.3858 13.0277C26.3858 13.4547 26.7334 13.8023 27.1604 13.8023H29.2159C30.2123 13.8023 30.9714 14.5635 30.9714 15.5578V17.6133C30.9714 18.0403 31.3164 18.3852 31.7433 18.3852C32.1702 18.3852 32.5178 18.0376 32.5178 17.6107V15.5551C32.5178 13.7074 31.0667 12.2532 29.2159 12.2532H27.1604ZM18.785 12.2532C16.9342 12.2532 15.483 13.7074 15.483 15.5552V17.6107C15.483 18.0377 15.8307 18.3852 16.2576 18.3852C16.6845 18.3852 17.0295 18.0403 17.0295 17.6134V15.5578C17.0295 14.5635 17.7885 13.8023 18.785 13.8023H20.8405C21.2675 13.8023 21.615 13.4547 21.615 13.0278C21.615 12.6008 21.2675 12.2532 20.8405 12.2532H18.785ZM16.2567 24.1648C15.8298 24.1648 15.4822 24.5124 15.4822 24.9393V26.9948C15.4822 28.8426 16.9333 30.2968 18.7841 30.2968H20.8397C21.2666 30.2968 21.6142 29.9492 21.6142 29.5222C21.6142 29.0953 21.2666 28.7477 20.8397 28.7477H18.7841C17.7877 28.7477 17.0286 27.9865 17.0286 26.9922V24.9367C17.0286 24.5097 16.6837 24.1648 16.2567 24.1648ZM31.7433 24.1648C31.3163 24.1648 30.9714 24.5097 30.9714 24.9367V26.9922C30.9714 27.9865 30.2123 28.7477 29.2159 28.7477H27.1604C26.7334 28.7477 26.3858 29.0953 26.3858 29.5222C26.3858 29.9492 26.7334 30.2968 27.1604 30.2968H29.2159C31.0667 30.2968 32.5178 28.8426 32.5178 26.9948V24.9393C32.5178 24.5124 32.1702 24.1648 31.7433 24.1648ZM21.8197 19.0864C21.8197 17.8792 22.798 16.9009 24.0052 16.9009C25.2123 16.9009 26.1906 17.8792 26.1906 19.0864C26.1906 20.2935 25.2123 21.2719 24.0052 21.2719C22.798 21.2719 21.8197 20.2918 21.8197 19.0864ZM20.2642 22.788C20.6739 22.3783 21.2288 22.1478 21.8077 22.1478H26.1906C26.7694 22.1478 27.3243 22.3783 27.7341 22.788C28.1439 23.1978 28.3744 23.7527 28.3744 24.3315V24.7703C28.3744 25.2518 27.9834 25.6428 27.5019 25.6428H20.5032C20.0183 25.6428 19.6256 25.2501 19.6256 24.7652V24.3332C19.6256 23.7527 19.8561 23.1978 20.2642 22.788Z" fill="#635DFF"/>
</svg>
