<svg width="48" height="48" viewBox="0 0 48 48" fill="none" xmlns="http://www.w3.org/2000/svg">
<path d="M4 36.0031V12.0021C4 9.79154 5.79154 8 8.00212 8H39.9979C42.2085 8 44 9.79154 44 12.0021V36.0031C44 38.2136 42.2085 40.0052 39.9979 40.0052H8.00212C5.79154 40.0052 4 38.2136 4 36.0031Z" fill="#D0CEFF"/>
<path d="M9.03091 13.0262C9.58739 13.0262 10.0385 12.5751 10.0385 12.0186C10.0385 11.4621 9.58739 11.011 9.03091 11.011C8.47443 11.011 8.02332 11.4621 8.02332 12.0186C8.02332 12.5751 8.47443 13.0262 9.03091 13.0262Z" fill="#635DFF"/>
<path d="M12.2773 13.0262C12.8338 13.0262 13.2849 12.5751 13.2849 12.0186C13.2849 11.4621 12.8338 11.011 12.2773 11.011C11.7209 11.011 11.2697 11.4621 11.2697 12.0186C11.2697 12.5751 11.7209 13.0262 12.2773 13.0262Z" fill="#635DFF"/>
<path d="M15.519 13.0262C16.0755 13.0262 16.5266 12.5751 16.5266 12.0186C16.5266 11.4621 16.0755 11.011 15.519 11.011C14.9626 11.011 14.5114 11.4621 14.5114 12.0186C14.5114 12.5751 14.9626 13.0262 15.519 13.0262Z" fill="#635DFF"/>
<path d="M38.1381 36.0266H9.91137C8.87081 36.0266 8.02802 35.1838 8.02802 34.1433V17.8852C8.02802 16.8447 8.87081 16.0019 9.91137 16.0019H38.1404C39.181 16.0019 40.0238 16.8447 40.0238 17.8852V34.1433C40.0214 35.1838 39.1786 36.0266 38.1381 36.0266Z" fill="#A5A0FF"/>
</svg>
