<svg width="48" height="48" viewBox="0 0 48 48" fill="none" xmlns="http://www.w3.org/2000/svg">
<path d="M27.9366 44.7248L43.2762 33.6074C44.9524 32.3933 45.997 31 45.997 28.5325C45.997 27.2893 45.5174 26.0901 44.6532 25.1883L27.0724 3.2142C25.5363 1.60788 22.9556 1.59379 21.4005 3.18132L3.38519 25.1719C2.49725 26.0784 2.00342 27.5 2.00342 28.5583C2.00342 30.5 3.05281 32.398 4.72186 33.6074L20.0615 44.7248C22.4048 46.4251 25.5933 46.4251 27.9366 44.7248Z" fill="#D0CEFF"/>
<path d="M33.4633 19.3087C33.4633 16.9298 31.5335 15 29.1546 15C26.7758 15 24.8459 16.9298 24.8459 19.3087C24.8459 21.6876 26.7758 23.6174 29.1546 23.6174C31.5335 23.6174 33.4633 21.6876 33.4633 19.3087Z" fill="#635DFF"/>
<path d="M34.6285 26.7293C33.7498 25.8506 32.5604 25.3578 31.3199 25.3578H26.9894C25.749 25.3578 24.5571 25.8506 23.6808 26.7293C22.8021 27.608 22.3093 28.7975 22.3093 30.0379V32.9314C22.3093 33.9679 23.1492 34.8078 24.1857 34.8078H34.1236C35.1601 34.8078 36 33.9679 36 32.9314V30.0379C36 28.7975 35.5073 27.6056 34.6285 26.7293Z" fill="#A5A0FF"/>
<path d="M19.6901 28.4334C19.1124 27.8557 18.3283 27.5304 17.5103 27.5304H15.0828C14.2648 27.5304 13.4807 27.8557 12.903 28.4334C12.3253 29.0111 12 29.7952 12 30.6132V32.3149C12 32.997 12.5535 33.5504 13.2356 33.5504H19.3575C20.0396 33.5504 20.5931 32.997 20.5931 32.3149V30.6132C20.5931 29.7952 20.2678 29.0111 19.6901 28.4334Z" fill="#A5A0FF"/>
<path d="M19.542 22.4838C19.542 20.6923 18.088 19.2383 16.2966 19.2383C14.5051 19.2383 13.0511 20.6923 13.0511 22.4838C13.0511 24.2752 14.5051 25.7292 16.2966 25.7292C18.088 25.7317 19.542 24.2776 19.542 22.4838Z" fill="#635DFF"/>
</svg>
