<svg width="48" height="49" viewBox="0 0 48 49" fill="none" xmlns="http://www.w3.org/2000/svg">
<path d="M17.9167 6.76318H7.96576C5.77553 6.76318 4 8.53872 4 10.7289V20.6823C4 22.8725 5.77553 24.6481 7.96576 24.6481H17.9167C20.1069 24.6481 21.8824 22.8725 21.8824 20.6823V10.7289C21.8824 8.53872 20.1069 6.76318 17.9167 6.76318Z" fill="#D0CEFF"/>
<path d="M16.5542 18.4416H9.40118L12.9777 12.9187L16.5542 18.4416Z" fill="white"/>
<path d="M28.9876 15.6921H19.0367C16.8465 15.6921 15.071 17.4677 15.071 19.6579V29.6112C15.071 31.8015 16.8465 33.577 19.0367 33.577H28.9876C31.1779 33.577 32.9534 31.8015 32.9534 29.6112V19.6579C32.9534 17.4677 31.1779 15.6921 28.9876 15.6921Z" fill="#A5A0FF"/>
<path d="M27.6008 27.3217H20.4235L24.0244 21.7988L27.6008 27.3217Z" fill="white"/>
<path d="M40.1793 24.6211H30.2284C28.0382 24.6211 26.2627 26.3966 26.2627 28.5869V38.5402C26.2627 40.7304 28.0382 42.506 30.2284 42.506H40.1793C42.3696 42.506 44.1451 40.7304 44.1451 38.5402V28.5869C44.1451 26.3966 42.3696 24.6211 40.1793 24.6211Z" fill="#635DFF"/>
<path d="M38.7682 36.2993H31.6152L35.1917 30.8008L38.7682 36.2993Z" fill="white"/>
</svg>
