<svg width="48" height="48" viewBox="0 0 48 48" fill="none" xmlns="http://www.w3.org/2000/svg">
<g clip-path="url(#clip0)">
<rect x="8.40186" y="2" width="28.5648" height="39.5513" rx="4.41198" fill="#D0CEFF"/>
<rect x="14.9937" y="19.5782" width="15.3811" height="4.39459" rx="1.09865" fill="white"/>
<rect x="14.9937" y="26.17" width="15.3811" height="4.39459" rx="1.09865" fill="#635DFF"/>
<circle cx="22.6842" cy="14.085" r="3.29594" fill="#635DFF"/>
<path d="M26.0147 41.8377C26.0147 41.4006 26.1883 40.9815 26.4973 40.6724L37.9933 29.1764C38.6369 28.5328 39.6803 28.5328 40.3239 29.1764L42.8347 31.6872C43.4783 32.3308 43.4783 33.3742 42.8347 34.0178L31.3387 45.5138C31.0297 45.8229 30.6105 45.9965 30.1735 45.9965L26.564 45.9966C26.2606 45.9966 26.0146 45.7506 26.0146 45.4472L26.0147 41.8377Z" fill="#635DFF"/>
<path d="M37.9626 29.1456C38.6062 28.5021 39.6496 28.5021 40.2932 29.1456L42.8346 31.6871C43.4782 32.3306 43.4782 33.3741 42.8346 34.0176L40.4182 36.4341L35.5461 31.5621L37.9626 29.1456Z" fill="#A5A0FF"/>
</g>
<defs>
<clipPath id="clip0">
<rect width="48" height="48" fill="white"/>
</clipPath>
</defs>
</svg>
