<svg width="48" height="48" viewBox="0 0 48 48" fill="none" xmlns="http://www.w3.org/2000/svg">
<path d="M33.3159 2H14.6841C12.0968 2 10 3.9766 10 6.41552V41.6774C10 44.1163 12.0968 46.0929 14.6841 46.0929H33.3159C35.9032 46.0929 38 44.1163 38 41.6774V6.41552C38 3.9766 35.9032 2 33.3159 2Z" fill="#D0CEFF"/>
<path d="M24 42C22.8971 42 22.0043 41.1073 22.0043 40.0043C22.0043 38.9014 22.8971 38.0087 24 38.0087C25.1029 38.0087 25.9957 38.9014 25.9957 40.0043C25.9957 41.1049 25.1029 42 24 42Z" fill="#635DFF"/>
<rect x="24.0043" y="14" width="19.9957" height="12" rx="1.5" fill="#635DFF"/>
<path d="M24 30.6924V24.1795C24 23.7929 24.3134 23.4795 24.7 23.4795H31.2129C31.8365 23.4795 32.1488 24.2335 31.7079 24.6745L25.195 31.1873C24.754 31.6283 24 31.316 24 30.6924Z" fill="#635DFF"/>
</svg>
