<svg width="49" height="48" viewBox="0 0 49 48" fill="none" xmlns="http://www.w3.org/2000/svg">
<path d="M21.4205 37.9999C29.7136 37.9999 36.4366 36.1123 36.4366 33.7837C36.4366 31.4552 29.7136 29.5675 21.4205 29.5675C13.1273 29.5675 6.40442 31.4552 6.40442 33.7837C6.40442 36.1123 13.1273 37.9999 21.4205 37.9999Z" fill="#A5A0FF"/>
<path d="M36.4344 22.8886H6.40442V33.7949H36.4344V22.8886Z" fill="#A5A0FF"/>
<path d="M21.4205 27.0273C29.7136 27.0273 36.4366 25.1396 36.4366 22.8111C36.4366 20.4825 29.7136 18.5948 21.4205 18.5948C13.1273 18.5948 6.40442 20.4825 6.40442 22.8111C6.40442 25.1396 13.1273 27.0273 21.4205 27.0273Z" fill="#D0CEFF"/>
<path d="M21.4205 23.4724C29.7136 23.4724 36.4366 21.5848 36.4366 19.2562C36.4366 16.9277 29.7136 15.04 21.4205 15.04C13.1273 15.04 6.40442 16.9277 6.40442 19.2562C6.40442 21.5848 13.1273 23.4724 21.4205 23.4724Z" fill="#A5A0FF"/>
<path d="M36.4344 8.60931H6.40442V19.2673H36.4344V8.60931Z" fill="#A5A0FF"/>
<path d="M21.4205 12.7458C29.7136 12.7458 36.4366 10.8581 36.4366 8.52956C36.4366 6.20101 29.7136 4.31335 21.4205 4.31335C13.1273 4.31335 6.40442 6.20101 6.40442 8.52956C6.40442 10.8581 13.1273 12.7458 21.4205 12.7458Z" fill="#D0CEFF"/>
<path d="M9.75949 17.089C10.2567 17.0294 10.5985 16.4707 10.523 15.841C10.4476 15.2114 9.98337 14.7492 9.4862 14.8088C8.98903 14.8684 8.64718 15.4271 8.72264 16.0568C8.79811 16.6865 9.26232 17.1486 9.75949 17.089Z" fill="#635DFF"/>
<path d="M9.75943 31.5524C10.2566 31.4928 10.5985 30.9341 10.523 30.3044C10.4475 29.6747 9.98331 29.2126 9.48614 29.2722C8.98897 29.3318 8.64711 29.8905 8.72258 30.5202C8.79805 31.1498 9.26226 31.612 9.75943 31.5524Z" fill="#635DFF"/>
<path d="M42.4044 36C42.4044 40.4183 38.8227 44 34.4044 44C29.9861 44 26.4044 40.4183 26.4044 36C26.4044 31.5817 29.9861 28 34.4044 28C38.8227 28 42.4044 31.5817 42.4044 36Z" fill="#635DFF"/>
<path d="M32.0196 33.369C32.0196 32.0199 33.1138 30.9257 34.4628 30.9257C35.8126 30.9257 36.9061 32.0199 36.9061 33.369C36.9061 34.718 35.8119 35.8122 34.4628 35.8122C33.1138 35.8122 32.0196 34.7187 32.0196 33.369Z" fill="white"/>
<path d="M31.2959 37.4621C31.792 36.966 32.4644 36.6876 33.166 36.6876H35.7599C36.4615 36.6876 37.1339 36.966 37.63 37.4621C38.126 37.9581 38.4044 38.6305 38.4044 39.3322V39.8589C38.4044 40.4442 37.9298 40.9189 37.3445 40.9189H31.5814C30.9961 40.9189 30.5215 40.4442 30.5215 39.8589V39.3322C30.5215 38.6312 30.7999 37.9581 31.2959 37.4621Z" fill="white"/>
</svg>
