<svg width="48" height="48" viewBox="0 0 48 48" fill="none" xmlns="http://www.w3.org/2000/svg">
<path d="M40.231 24.0094H21.9838V40.0531H40.231V24.0094Z" fill="#D0CEFF"/>
<path d="M40.2498 40.046C42.321 40.046 44 36.4624 44 32.0418C44 27.6213 42.321 24.0377 40.2498 24.0377C38.1787 24.0377 36.4996 27.6213 36.4996 32.0418C36.4996 36.4624 38.1787 40.046 40.2498 40.046Z" fill="#D0CEFF"/>
<path d="M27.9799 22.0343H21.9673V42H27.9799V22.0343Z" fill="#635DFF"/>
<path d="M27.8974 41.9977C30.9775 41.9977 33.4744 37.5287 33.4744 32.016C33.4744 26.5032 30.9775 22.0343 27.8974 22.0343C24.8173 22.0343 22.3204 26.5032 22.3204 32.016C22.3204 37.5287 24.8173 41.9977 27.8974 41.9977Z" fill="#635DFF"/>
<path d="M25 3C23.8976 3 23 3.7924 23 4.76567V18H27V4.76567C27 3.7924 26.1024 3 25 3Z" fill="#635DFF"/>
<path d="M21.932 41.9977C25.0121 41.9977 27.509 37.5287 27.509 32.016C27.509 26.5032 25.0121 22.0343 21.932 22.0343C18.8518 22.0343 16.3549 26.5032 16.3549 32.016C16.3549 37.5287 18.8518 41.9977 21.932 41.9977Z" fill="#635DFF"/>
<path d="M21.9744 40.0484C24.0482 40.0484 25.7293 36.4595 25.7293 32.0324C25.7293 27.6053 24.0482 24.0165 21.9744 24.0165C19.9006 24.0165 18.2195 27.6053 18.2195 32.0324C18.2195 36.4595 19.9006 40.0484 21.9744 40.0484Z" fill="#D0CEFF"/>
<path d="M21.9767 24.0094H7.78107V40.0531H21.9767V24.0094Z" fill="#D0CEFF"/>
<path d="M7.69393 40.0696C9.76771 40.0696 11.4488 36.4807 11.4488 32.0536C11.4488 27.6265 9.76771 24.0377 7.69393 24.0377C5.62015 24.0377 3.93903 27.6265 3.93903 32.0536C3.93903 36.4807 5.62015 40.0696 7.69393 40.0696Z" fill="#A5A0FF"/>
</svg>
