<svg width="48" height="48" viewBox="0 0 48 48" fill="none" xmlns="http://www.w3.org/2000/svg">
<path fill-rule="evenodd" clip-rule="evenodd" d="M23.9762 9.27273C17.4306 9.27273 12.2417 13.6308 9.98174 19.6655L9.95162 19.7459L9.09618 21.4591C8.69255 22.2674 7.71095 22.595 6.90371 22.1909C6.09646 21.7867 5.76926 20.8038 6.17288 19.9955L6.95237 18.4344C9.61251 11.4178 15.846 6 23.9762 6C28.0396 6 32.7373 7.57101 36.3289 10.9426C39.9671 14.358 42.3866 19.5443 41.949 26.5566C41.6489 31.364 40.3089 34.0358 39.0407 36.5645C38.5837 37.4755 38.1361 38.3679 37.7498 39.335C37.4146 40.1741 36.4636 40.5822 35.6256 40.2466C34.7876 39.911 34.3801 38.9586 34.7152 38.1195C35.2564 36.7648 35.7965 35.6912 36.2974 34.6954C37.4716 32.3611 38.431 30.4539 38.687 26.3525C39.0664 20.2739 36.9919 16.0511 34.0935 13.3302C31.1483 10.5653 27.2666 9.27273 23.9762 9.27273ZM23.1109 14.4885C22.8814 14.5253 22.683 14.6134 22.2558 14.8272C21.4486 15.2314 20.467 14.9038 20.0633 14.0954C19.6597 13.2871 19.9869 12.3042 20.7942 11.9C20.8089 11.8926 20.824 11.8851 20.8394 11.8774C21.2311 11.6808 21.8327 11.379 22.5946 11.2569C23.4208 11.1245 24.31 11.2151 25.3332 11.5737C26.185 11.8722 26.6339 12.8058 26.3358 13.6588C26.0376 14.5118 25.1053 14.9612 24.2535 14.6627C23.6425 14.4485 23.3061 14.4573 23.1109 14.4885ZM28.277 14.1881C28.7248 13.4035 29.723 13.1309 30.5066 13.5792C32.7207 14.8461 36.9876 18.8713 36.2199 25.0211C36.108 25.9179 35.2912 26.554 34.3957 26.4419C33.5001 26.3298 32.8649 25.512 32.9768 24.6152C33.5165 20.2923 30.484 17.3357 28.8851 16.4208C28.1015 15.9724 27.8292 14.9728 28.277 14.1881ZM15.4669 14.6611C16.1051 14.0221 17.1398 14.0221 17.778 14.6611C18.4162 15.3001 18.4162 16.3362 17.778 16.9753L17.7768 16.9765L17.7756 16.9776L17.7744 16.9789L17.7731 16.9802L17.7719 16.9814L17.7708 16.9825L17.7695 16.9838L17.7683 16.985L17.767 16.9863L17.7655 16.9878L17.7643 16.989L17.763 16.9903L17.7602 16.9931L17.7549 16.9984L17.7535 16.9998L17.7491 17.0042L17.7476 17.0057L17.7459 17.0074L17.7407 17.0126L17.7369 17.0164L17.7356 17.0177L17.7342 17.0191L17.73 17.0233L16.9609 17.7934C15.9982 18.7574 15.4337 19.9816 14.916 21.4016C14.826 21.6484 14.7346 21.9121 14.6397 22.1861C14.2392 23.3415 13.7746 24.682 13.0797 25.7259C12.1927 27.058 11.4381 27.8593 10.5837 28.4297C10.1719 28.7046 9.77549 28.8998 9.4173 29.0653C9.29677 29.121 9.18529 29.1714 9.07723 29.2202C8.84306 29.326 8.62492 29.4246 8.36535 29.5545C7.55811 29.9587 6.5765 29.631 6.17288 28.8227C5.76926 28.0144 6.09646 27.0315 6.90371 26.6273C7.22428 26.4668 7.53754 26.3252 7.79308 26.2097C7.88647 26.1674 7.97216 26.1287 8.04768 26.0938C8.35337 25.9525 8.56976 25.8408 8.77077 25.7066C9.14197 25.4588 9.613 25.0329 10.3602 23.9105C10.8018 23.2473 11.087 22.432 11.4698 21.338C11.5842 21.0111 11.7073 20.6593 11.8459 20.2792C12.3997 18.7602 13.1613 16.9698 14.6499 15.4793L15.4182 14.7099L15.4225 14.7056L15.4239 14.7042L15.4252 14.7029L15.429 14.6991L15.4326 14.6955L15.4343 14.6938L15.4376 14.6905L15.4406 14.6875L15.442 14.6861L15.4484 14.6797L15.4513 14.6768L15.4526 14.6754L15.4539 14.6742L15.4551 14.673L15.4564 14.6716L15.4577 14.6704L15.4601 14.668L15.4614 14.6667L15.4626 14.6654L15.4638 14.6642L15.465 14.663L15.4669 14.6611ZM22.0551 20.7309C21.3176 21.4536 20.812 22.4182 20.591 22.9714C20.2558 23.8105 19.3048 24.2186 18.4668 23.883C17.6288 23.5473 17.2213 22.595 17.5564 21.7559C17.8802 20.9454 18.6002 19.5373 19.7692 18.3918C20.9676 17.2175 22.7822 16.2012 25.1138 16.6681C27.6723 17.1805 29.5461 18.7564 30.4781 20.8896C31.395 22.9883 31.3493 25.4942 30.3961 27.8805C28.6604 32.2254 24.4297 38.1328 21.0464 41.5207C20.4082 42.1598 19.3735 42.1598 18.7353 41.5207C18.0971 40.8817 18.0971 39.8456 18.7353 39.2066C21.8886 36.049 25.8288 30.5019 27.3615 26.665C28.0424 24.9603 27.9967 23.3753 27.4837 22.2013C26.9858 21.0617 25.9998 20.1831 24.4728 19.8773C23.5361 19.6897 22.7633 20.037 22.0551 20.7309ZM24.4062 22.4213C25.277 22.6591 25.7903 23.5587 25.5528 24.4306C23.4452 32.1691 17.9605 36.7226 15.012 38.4941C14.2381 38.959 13.2343 38.7078 12.7699 37.9328C12.3056 37.1579 12.5565 36.1527 13.3304 35.6877C15.8292 34.1865 20.5853 30.2309 22.3997 23.5694C22.6371 22.6975 23.5355 22.1835 24.4062 22.4213ZM17.5289 25.9112C18.2799 26.4125 18.4828 27.4285 17.9822 28.1804C16.2025 30.8536 14.3583 32.6904 10.8166 34.4636C10.0094 34.8678 9.02776 34.5401 8.62414 33.7318C8.22052 32.9235 8.54772 31.9406 9.35496 31.5364C12.3499 30.0369 13.7741 28.601 15.2628 26.365C15.7634 25.6131 16.778 25.4099 17.5289 25.9112ZM34.3882 28.2079C35.2262 28.5436 35.6338 29.4959 35.2986 30.335C35.1768 30.6398 35.059 30.9372 34.9438 31.2282C33.5233 34.8153 32.4895 37.4258 29.2172 40.7025C28.579 41.3416 27.5443 41.3416 26.9061 40.7025C26.268 40.0635 26.268 39.0274 26.9061 38.3884C29.6915 35.5993 30.5048 33.5501 31.9254 29.9708C32.0343 29.6964 32.1468 29.413 32.264 29.1195C32.5992 28.2804 33.5502 27.8723 34.3882 28.2079Z" fill="#635DFF"/>
</svg>
