<svg width="48" height="48" viewBox="0 0 48 48" fill="none" xmlns="http://www.w3.org/2000/svg">
<path d="M5 10.8C5 8.70132 6.70132 7 8.8 7H26.5333C28.632 7 30.3333 8.70132 30.3333 10.8V40.7778H8.8C6.70131 40.7778 5 39.0765 5 36.9778V10.8Z" fill="#D0CEFF"/>
<path d="M30.3334 15.4444H39.2C41.2987 15.4444 43 17.1458 43 19.2444V36.9778C43 39.0765 41.2987 40.7778 39.2 40.7778H30.3334V15.4444Z" fill="#635DFF"/>
<rect x="11.3334" y="13.3333" width="4.22222" height="4.22222" rx="1" fill="#635DFF"/>
<rect x="11.3334" y="21.7778" width="4.22222" height="4.22222" rx="1" fill="#635DFF"/>
<rect x="11.3334" y="30.2222" width="4.22222" height="4.22222" rx="1" fill="#635DFF"/>
<rect x="19.7778" y="13.3333" width="4.22222" height="4.22222" rx="1" fill="#635DFF"/>
<rect x="19.7778" y="21.7778" width="4.22222" height="4.22222" rx="1" fill="#635DFF"/>
<rect x="34.5555" y="21.7778" width="4.22222" height="4.22222" rx="1" fill="#D0CEFF"/>
<rect x="34.5555" y="30.2222" width="4.22222" height="4.22222" rx="1" fill="#D0CEFF"/>
<rect x="19.7778" y="30.2222" width="4.22222" height="4.22222" rx="1" fill="#635DFF"/>
</svg>
