<svg width="48" height="48" viewBox="0 0 48 48" fill="none" xmlns="http://www.w3.org/2000/svg">
<path d="M39.7403 24.0063C39.1526 23.4186 38.7687 22.7076 38.5791 21.9587C36.5078 22.3355 34.2944 21.7241 32.6924 20.1221C31.825 19.2547 31.2515 18.2096 30.9624 17.1029C29.8557 16.8162 28.8058 16.2403 27.9385 15.3705C26.3388 13.7709 25.725 11.5551 26.0994 9.48383C25.3529 9.29188 24.6444 8.90796 24.0614 8.32498C22.8883 7.15427 22.5091 5.49301 22.9167 4C18.1676 4.26068 13.4918 6.20159 9.8636 9.82983C2.04547 17.648 2.04547 30.3219 9.8636 38.1401C17.6817 45.9582 30.3557 45.9582 38.1738 38.1401C41.7808 34.5332 43.7217 29.8882 43.9989 25.1675C42.5249 25.5443 40.8944 25.1604 39.7403 24.0063Z" fill="#D0CEFF"/>
<path d="M34.7517 32.2534C35.7595 32.2534 36.5765 31.4364 36.5765 30.4286C36.5765 29.4208 35.7595 28.6038 34.7517 28.6038C33.7439 28.6038 32.9269 29.4208 32.9269 30.4286C32.9269 31.4364 33.7439 32.2534 34.7517 32.2534Z" fill="#A5A0FF"/>
<path d="M39.6028 14.3349C40.3855 14.3349 41.02 13.7004 41.02 12.9177C41.02 12.1351 40.3855 11.5006 39.6028 11.5006C38.8202 11.5006 38.1857 12.1351 38.1857 12.9177C38.1857 13.7004 38.8202 14.3349 39.6028 14.3349Z" fill="#D0CEFF"/>
<path d="M41.4172 7.83434C42.1999 7.83434 42.8343 7.19985 42.8343 6.41717C42.8343 5.63449 42.1999 5 41.4172 5C40.6345 5 40 5.63449 40 6.41717C40 7.19985 40.6345 7.83434 41.4172 7.83434Z" fill="#D0CEFF"/>
<path d="M32.908 12.2518C33.7732 12.2518 34.4745 11.5505 34.4745 10.6853C34.4745 9.82021 33.7732 9.11888 32.908 9.11888C32.0429 9.11888 31.3416 9.82021 31.3416 10.6853C31.3416 11.5505 32.0429 12.2518 32.908 12.2518Z" fill="#D0CEFF"/>
<path d="M22.1275 38.2041C23.1353 38.2041 23.9523 37.3871 23.9523 36.3793C23.9523 35.3715 23.1353 34.5545 22.1275 34.5545C21.1197 34.5545 20.3027 35.3715 20.3027 36.3793C20.3027 37.3871 21.1197 38.2041 22.1275 38.2041Z" fill="#635DFF"/>
<path d="M24.796 23.6153C25.8038 23.6153 26.6208 22.7983 26.6208 21.7905C26.6208 20.7827 25.8038 19.9657 24.796 19.9657C23.7882 19.9657 22.9713 20.7827 22.9713 21.7905C22.9713 22.7983 23.7882 23.6153 24.796 23.6153Z" fill="#635DFF"/>
<path d="M15.3546 16.2C16.3624 16.2 17.1794 15.383 17.1794 14.3752C17.1794 13.3674 16.3624 12.5504 15.3546 12.5504C14.3468 12.5504 13.5298 13.3674 13.5298 14.3752C13.5298 15.383 14.3468 16.2 15.3546 16.2Z" fill="#A5A0FF"/>
<path d="M13.5866 29.2413C14.5944 29.2413 15.4114 28.4243 15.4114 27.4165C15.4114 26.4087 14.5944 25.5917 13.5866 25.5917C12.5788 25.5917 11.7618 26.4087 11.7618 27.4165C11.7618 28.4243 12.5788 29.2413 13.5866 29.2413Z" fill="#A5A0FF"/>
</svg>
