<svg width="48" height="48" viewBox="0 0 48 48" fill="none" xmlns="http://www.w3.org/2000/svg">
<path d="M6.00324 8H41.9373C44.1485 8 45.9405 9.79204 45.9405 12.0032V35.9968C45.9405 38.208 44.1485 40 41.9373 40H6.00324C3.79204 40 2 38.208 2 35.9968V12.0032C2 9.79204 3.79204 8 6.00324 8Z" fill="#D0CEFF"/>
<path d="M12.9814 20.987C12.9814 19.3221 14.3307 17.9728 15.9956 17.9728C17.6605 17.9728 19.0098 19.3221 19.0098 20.987C19.0098 22.6519 17.6605 24.0012 15.9956 24.0012C14.3307 24.0012 12.9814 22.6495 12.9814 20.987Z" fill="#635DFF"/>
<path d="M10.8362 26.0923C11.4013 25.5271 12.1666 25.2092 12.9649 25.2092H19.0098C19.8081 25.2092 20.5734 25.5271 21.1386 26.0923C21.7038 26.6574 22.0217 27.4228 22.0217 28.2211V28.8263C22.0217 29.4903 21.4824 30.0296 20.8183 30.0296H11.1658C10.4971 30.0296 9.95544 29.488 9.95544 28.8192V28.2234C9.95544 27.4228 10.2733 26.6574 10.8362 26.0923Z" fill="#635DFF"/>
<path d="M25.9142 26.9965C25.9142 25.9533 26.7596 25.1056 27.8051 25.1056H34.3021C35.3453 25.1056 36.1931 25.951 36.1931 26.9965C36.1931 28.0397 35.3477 28.8875 34.3021 28.8875H27.8051C26.7619 28.8851 25.9142 28.0397 25.9142 26.9965Z" fill="#A5A0FF"/>
<path d="M25.9142 20.9516C25.9142 19.9084 26.7596 19.0607 27.8051 19.0607H36.0542C37.0973 19.0607 37.9451 19.9061 37.9451 20.9516C37.9451 21.9948 37.0997 22.8426 36.0542 22.8426H27.8051C26.7619 22.8426 25.9142 21.9948 25.9142 20.9516Z" fill="#A5A0FF"/>
</svg>
