<svg width="48" height="48" viewBox="0 0 48 48" fill="none" xmlns="http://www.w3.org/2000/svg">
<path d="M19.0059 13.0172C19.0059 10.2474 21.2524 8 24.0235 8C26.7946 8 29.0388 10.2474 29.0388 13.0172C29.0388 15.7894 26.7923 18.0345 24.0235 18.0345C21.2524 18.0368 19.0059 15.7894 19.0059 13.0172Z" fill="#635DFF"/>
<path d="M17.6485 21.6609C18.6695 20.6396 20.0574 20.0654 21.5018 20.0654H26.5453C27.9896 20.0654 29.3776 20.6396 30.3985 21.6609C31.4194 22.6823 31.9934 24.0707 31.9934 25.5156V38C31.9934 39.2072 31.0148 40.1839 29.8104 40.1839H18.2366C17.0299 40.1839 16.0536 39.2049 16.0536 38L16.0536 25.5156C16.0513 24.0707 16.6253 22.6846 17.6485 21.6609Z" fill="#D0CEFF"/>
<path d="M5.05152 23.1059C5.7243 22.4328 6.63703 22.0539 7.58974 22.0539H10.4173C11.37 22.0539 12.2828 22.4328 12.9555 23.1059C13.6283 23.7789 14.0071 24.692 14.0071 25.6451V34.7238C14.0071 35.5192 13.3625 36.164 12.5674 36.164H5.43966C4.64455 36.164 4 35.5192 4 34.7238V25.6451C4 24.692 4.37873 23.7789 5.05152 23.1059Z" fill="#D0CEFF"/>
<path d="M35.0445 23.1059C35.7173 22.4328 36.63 22.0539 37.5827 22.0539H40.4103C41.363 22.0539 42.2757 22.4328 42.9485 23.1059C43.6213 23.7789 44 24.692 44 25.6451V34.5598C44 35.3552 43.3555 36 42.5604 36H35.4303C34.6352 36 33.9906 35.3552 33.9906 34.5598L33.9906 25.6451C33.993 24.692 34.3717 23.7789 35.0445 23.1059Z" fill="#D0CEFF"/>
<path d="M34.9974 15.9565C34.9974 13.7468 36.7876 11.9559 38.9965 11.9559C41.2054 11.9559 42.9955 13.7468 42.9955 15.9565C42.9955 18.1663 41.2054 19.9571 38.9965 19.9571C36.7876 19.9571 34.9974 18.1663 34.9974 15.9565Z" fill="#A5A0FF"/>
<path d="M5.00446 15.9565C5.00446 13.7468 6.79462 11.9559 9.00351 11.9559C11.2124 11.9559 13.0026 13.7468 13.0026 15.9565C13.0026 18.1663 11.2124 19.9571 9.00351 19.9571C6.79462 19.9571 5.00446 18.1663 5.00446 15.9565Z" fill="#A5A0FF"/>
</svg>
