<svg width="40" height="41" viewBox="0 0 40 41" fill="none" xmlns="http://www.w3.org/2000/svg">
<path d="M32.354 0.253174H7.64602C3.42324 0.253174 0 3.67641 0 7.89919V32.6072C0 36.8299 3.42324 40.2532 7.64602 40.2532H32.354C36.5768 40.2532 40 36.8299 40 32.6072V7.89919C40 3.67641 36.5768 0.253174 32.354 0.253174Z" fill="#D0CEFF"/>
<path d="M11.7798 5.05835H28.6511C31.6006 5.05835 33.9915 7.45485 33.9915 10.4111V10.4131C33.9915 13.3693 31.6006 15.7658 28.6511 15.7658H11.7798C8.83048 15.7658 6.43953 13.3693 6.43953 10.4131V10.4111C6.43953 7.45485 8.83048 5.05835 11.7798 5.05835Z" fill="#635DFF"/>
<path d="M17.147 10.3987V30.0936C17.147 33.043 14.7505 35.434 11.7943 35.434H11.7923C8.83603 35.434 6.43953 33.043 6.43953 30.0936V10.3987C6.43953 7.4493 8.83603 5.05835 11.7923 5.05835H11.7943C14.7505 5.05835 17.147 7.4493 17.147 10.3987Z" fill="#A5A0FF"/>
<path d="M11.7933 35.4431C8.83648 35.4431 6.43953 33.0461 6.43953 30.0893C6.43953 27.1325 8.83648 24.7356 11.7933 24.7356C14.7501 24.7356 17.147 27.1325 17.147 30.0893C17.147 33.0461 14.7501 35.4431 11.7933 35.4431Z" fill="white"/>
<path d="M24.1745 28.1554C27.1313 28.1554 29.5283 25.7585 29.5283 22.8017C29.5283 19.8449 27.1313 17.448 24.1745 17.448C21.2177 17.448 18.8208 19.8449 18.8208 22.8017C18.8208 25.7585 21.2177 28.1554 24.1745 28.1554Z" fill="#635DFF"/>
</svg>
