<svg width="48" height="48" viewBox="0 0 48 48" fill="none" xmlns="http://www.w3.org/2000/svg">
<path d="M9.32339 10H22V42H9.32339C8.45013 42 7.61264 41.6524 6.99515 41.0338C6.37766 40.4151 6.03076 39.576 6.03076 38.701V13.299C6.03076 12.424 6.37766 11.5849 6.99515 10.9662C7.61264 10.3476 8.45013 10 9.32339 10Z" fill="#A5A0FF"/>
<path d="M34.701 42H22L22 26L38 26V38.701C38 39.576 37.6524 40.4151 37.0338 41.0338C36.4151 41.6524 35.576 42 34.701 42Z" fill="#D0CEFF"/>
<path d="M26 6H38.8193C39.7074 6 40.559 6.35276 41.187 6.98069C41.8149 7.60861 42.1677 8.46026 42.1677 9.34828V22H26V6Z" fill="#635DFF"/>
</svg>
